<svg height="16" viewBox="0 0 16 16" width="16" xmlns="http://www.w3.org/2000/svg"><path d="m4.953317 1.611794c-2.7125307 0-4.953317 3.125307-4.953317 6.958231 0 1.808354.47174446 3.793612 1.0614251 3.793612.4520884 0 .8255529-.609337.8648649-1.218673-.904177-.255529-1.55282573-1.100738-1.55282573-2.0638825 0-.5896805.23587234-1.1203932.62899273-1.5331696.1965601-2.6339067 1.9262899-4.972973 3.8918918-4.972973 1.1793609 0 1.7297294.884521 1.7297294 2.5159705l-4.6977882 2.4766586c-.6879608.3538083-1.00245716.923833-1.00245716 1.5135135 0 .8845209.72727286 1.6117935 1.61179376 1.6117935.4324324 0 .7272727-.117936 1.3366093-.432432l2.3587223-1.2972976c1.0221128-.5700246 1.3955775-1.2579852 1.3955775-2.7125307v-1.2972974c0-2.0638822-.9041765-3.3415233-2.6732187-3.3415233zm-2.4570025 8.4914c-.5700245 0-1.0221131-.4520879-1.0221131-1.0221125 0-.5503685.4520886-1.0221129 1.0221131-1.0221129.5503685 0 1.002457.4520882 1.002457 1.0221129 0 .5700246-.4520885 1.0221125-1.002457 1.0221125zm0-.3931198c.3341524 0 .6093367-.2751843.6093367-.6289927 0-.3341523-.2751843-.6289927-.6093367-.6289927-.3538083 0-.6289926.2751843-.6289926.6289927s.2751843.6289927.6289926.6289927zm-1.67076164 4.6781318h.57002454v-2.260441h-.57002454zm10.22113014-12.776412c-1.7690416 0-2.6732181 1.2972973-2.6732181 3.3415233v1.2776412c0 1.4545455.3734634 2.1425063 1.3955771 2.7125308l2.378379 1.2972977c.609336.334152.904176.432432 1.336608.432432.884521 0 1.611794-.7272727 1.611794-1.6117936 0-.6093366-.314496-1.1597052-1.002456-1.5135135l-4.7174459-2.4373464c0-1.6314497.550368-2.5159705 1.7297299-2.5159705 1.965603 0 3.695331 2.3194102 3.891892 4.972973.412778.4127765.628994.9434888.628994 1.5331695 0 .9631455-.668306 1.8083535-1.552827 2.0638815.03931.609337.412777 1.218674.864866 1.218674.589679 0 1.061424-2.004914 1.061424-3.793612 0-3.85258-2.240786-6.977887-4.953317-6.977887zm2.457003 8.4914c-.550369 0-1.022113-.4520879-1.022113-1.0221125 0-.5503685.452088-1.0221129 1.022113-1.0221129.570024 0 1.022112.4520882 1.022112 1.0221129 0 .5700246-.452088 1.0221125-1.022112 1.0221125zm0-.3931198c.353808 0 .628993-.2751843.628993-.6289927 0-.3341523-.275185-.6289927-.628993-.6289927-.334153 0-.628992.2751843-.628992.6289927.01965.3538084.294839.6289927.628992.6289927zm1.670761 4.6781318v-2.260441h-.570024v2.260441z" fill="#2e3436" stroke-width=".19656"/></svg>