<svg height="16" viewBox="0 0 16 16" width="16" xmlns="http://www.w3.org/2000/svg"><path class="warning" d="m9.5 8c-.832031 0-1.5.667969-1.5 1.5v5c0 .832031.667969 1.5 1.5 1.5h5c.832031 0 1.5-.667969 1.5-1.5v-5c0-.832031-.667969-1.5-1.5-1.5zm1.5 1h2v2.5s0 .5-.5.5h-1c-.5 0-.5-.5-.5-.5zm.5 4h1c.277344 0 .5.222656.5.5v1c0 .277344-.222656.5-.5.5h-1c-.277344 0-.5-.222656-.5-.5v-1c0-.277344.222656-.5.5-.5zm0 0" fill="#ff7800"/><path d="m11.298828 0c-1.3884205 0-2.5600909 1.0821419-2.5781249 2.3984375-.01804 1.3703883 1.1897044 2.4511719 2.5781249 2.4511719 1.280233-.018028 2.09295-.7925887 2.435547-1.3515625.126218-.1983465.179687-.3964526.179687-.6308594v-.8828125c0-.2344083-.053473-.4344639-.179687-.6328125-.360631-.55897244-1.155314-1.3515625-2.435547-1.3515625zm-6.5976561.03515625c-1.2802309 0-2.0749173.79454388-2.4355469 1.35351565-.1262185.1983464-.1796875.3964503-.1796875.6308593v.8828126c0 .2344088.0534741.4325142.1796875.6308593.3606296.522912 1.155316 1.2983747 2.4355469 1.3164063 1.3884193.0180281 2.596157-1.0816905 2.578125-2.4160156-.018027-1.3162926-1.1716737-2.39843755-2.578125-2.39843755zm-1.5332031 1.44335935c.1622852 0 .2890624.1267788.2890624.2890625v1.3164063c0 .1622838-.1267772.2871094-.2890624.2871094-.1622811 0-.2890626-.1248256-.2890626-.2871094v-1.3164063c0-.1622837.1267815-.2890625.2890626-.2890625zm9.6640622 0c.162283 0 .289063.1267788.289063.2890625v1.3164063c0 .1622838-.12678.2871094-.289063.2871094-.162284 0-.289062-.1248256-.289062-.2871094v-1.3164063c0-.1622837.126778-.2890625.289062-.2890625zm-6.1484372 3.28125c-.4688176.3606284-1.046635.5962964-1.6777344.6503906v4.2363282h1.6777344zm2.6328124 0v2.7988282h1.6777348v-2.1484376c-.6311-.0540909-1.2089182-.2897622-1.6777348-.6503906zm-4.3105468 5.4824224v.847656c0 .342597.2355283.521484.578125.521484h.5039062c.3606277 0 .5957031-.178887.5957032-.521484v-.847656z" fill="#2e3436" stroke-width=".180314"/></svg>
