<svg height="16" viewBox="0 0 16 16" width="16" xmlns="http://www.w3.org/2000/svg"><circle class="warning" cx="7.851777" cy="14.705316" fill="#ff5b00" r="1.294684"/><path d="m5.4621129 0c-2.259538 0-4.1261129 2.6033807-4.1261129 5.7962062 0 1.5063587.3929631 3.1600786.8841671 3.1600786.3765896 0 .6876855-.5075774.7204324-1.0151548-.7531794-.212855-1.2935037-.916914-1.2935037-1.7192137 0-.4912039.1964816-.9332875.5239509-1.2771302.1637346-2.1940442 1.6045994-4.1424864 3.2419458-4.1424864.9824075 0 1.4408645.7368059 1.4408645 2.0958034l-3.9132575 2.0630565c-.5730713.2947223-.8350467.7695528-.8350467 1.2607567 0 .7368059.6058182 1.342624 1.3426241 1.342624.3602162 0 .6058181-.098241 1.1133955-.3602162l1.9648156-1.0806486c.85142-.4748305 1.162516-1.0479017 1.162516-2.259538v-1.0806487c0-1.7192137-.753179-2.7834888-2.2267911-2.7834888zm-2.046683 7.0733364c-.4748304 0-.8514201-.3765897-.8514201-.8514201 0-.458457.3765897-.8514201.8514201-.8514201.458457 0 .8350467.3765896.8350467.8514201 0 .4748304-.3765897.8514201-.8350467.8514201zm0-.3274693c.2783489 0 .5075774-.2292285.5075774-.5239508 0-.2783489-.2292285-.5239509-.5075774-.5239509-.2947223 0-.5239508.2292285-.5239508.5239509 0 .2947223.2292285.5239508.5239508.5239508zm-1.3917444 3.8968849h.4748305v-1.8829488h-.4748305zm8.5142015-10.642752c-1.473612 0-2.226791 1.0806486-2.226791 2.7834888v1.0642752c0 1.2116363.311095 1.7847076 1.162516 2.259538l1.981189 1.0806487c.507577.2783488.753179.3602162 1.113395.3602162.736806 0 1.342624-.6058182 1.342624-1.3426241 0-.5075774-.261975-.9660344-.835046-1.2607567l-3.929632-2.0303095c0-1.3589976.458457-2.0958034 1.440865-2.0958034 1.637347 0 3.078211 1.9320687 3.241946 4.1424864.343843.3438427.523951.7859262.523951 1.2771301 0 .8022998-.556698 1.5063587-1.293504 1.7192138.03275.5075773.343843 1.0151547.720433 1.0151547.491204 0 .884167-1.6700933.884167-3.1600785 0-3.209199-1.866575-5.8125797-4.126113-5.8125797zm2.046683 7.0733364c-.458457 0-.85142-.3765897-.85142-.8514201 0-.458457.376589-.8514201.85142-.8514201.47483 0 .85142.3765896.85142.8514201 0 .4748304-.37659.8514201-.85142.8514201zm0-.3274693c.294722 0 .523951-.2292285.523951-.5239508 0-.2783489-.229229-.5239509-.523951-.5239509-.278349 0-.523951.2292285-.523951.5239509.01637.2947223.245602.5239508.523951.5239508zm1.391744 3.8968849v-1.8829488h-.47483v1.8829488z" fill="#2e3436" stroke-width=".163735"/></svg>
