<svg height="16" viewBox="0 0 16 16" width="16" xmlns="http://www.w3.org/2000/svg"><path class="warning" d="m9.5 8c-.832031 0-1.5.667969-1.5 1.5v5c0 .832031.667969 1.5 1.5 1.5h5c.832031 0 1.5-.667969 1.5-1.5v-5c0-.832031-.667969-1.5-1.5-1.5zm1.5 1h2v2.5s0 .5-.5.5h-1c-.5 0-.5-.5-.5-.5zm.5 4h1c.277344 0 .5.222656.5.5v1c0 .277344-.222656.5-.5.5h-1c-.277344 0-.5-.222656-.5-.5v-1c0-.277344.222656-.5.5-.5zm0 0" fill="#ff7800"/><g fill="#2e3436" transform="matrix(.18306637 0 0 .18306637 -3.716248 -6.553286)"><path d="m49.095484 35.797323c-5.399994-.1-11.498001 2.600444-15.597997 8.300439-.6.799999-1.096363 1.601954-1.696362 2.901953 6.899993 1.199998 12.504003 7.400372 12.504003 14.200365 0 1.899998-.409571 3.702467-1.10957 5.302466 4.199996-.6 6.807301-1.601955 9.207299-2.901953 5.299995-2.999997 9.39934-7.900544 9.39934-15.000537 0-8.099992-5.70672-12.702734-12.706713-12.802733zm29.809032 0c-6.999993.099999-12.706713 4.702741-12.706713 12.802733 0 6.999993 4.099345 11.90054 9.39934 15.000537 2.399998 1.299998 5.007304 2.301953 9.2073 2.901953-.7-1.599999-1.109571-3.402468-1.109571-5.302466 0-6.799993 5.60401-12.900367 12.504004-14.200365-.5-1.299999-1.096363-2.101954-1.696363-2.901953-4.099996-5.599995-10.098002-8.300439-15.597997-8.300439zm-25.104027 7.084179c.483398-.040039.989111.147779 1.301611.522778.6.6.49331 1.591114-.106689 2.091113l-4.694336 4.000855c-.599999.499999-1.597803.507958-2.197803-.192041-.499999-.7-.407958-1.608472.192041-2.208472l4.705005-3.894165c.225-.1875.510132-.296045.800171-.320068zm20.01494.032007c.3875-.0375.788233.084082 1.088233.384082l4.694335 3.904834c.7.499999.70271 1.497803.20271 2.197802-.499999.6-1.501782.59602-2.101782.096021l-4.694335-3.894165c-.7-.5-.70271-1.501783-.20271-2.101782.249999-.35.62605-.549292 1.013549-.586792zm-23.610375 25.285399c-2.699997.999999-5.704592 1.603052-9.004589 1.803052v19.193431c0 1.899999 1.296706 3.008643 3.296704 3.008643h2.507202c1.899998 0 3.200683-1.008645 3.200683-3.008643zm27.589892 0v8.08706h9.004589v-6.284008c-3.299997-.2-6.304592-.803053-9.004589-1.803052z"/><path d="m31.9 70.4c4.9 0 9.3-3.1 9.3-9.2 0-5.5-5.2-11.3-11.9-11.3-5.7 0-9 4.5-9 9.1 0 6.9 5.9 11.4 11.6 11.4zm-1.6-4.8c-.9.8-2.4 0-4.3-2.3-1.8-2.3-2.3-3.8-1.4-4.6s2.4-.1 4.3 2.2c1.8 2.4 2.3 3.9 1.4 4.7zm65.8 4.8c5.7 0 11.6-4.5 11.6-11.4 0-4.6-3.3-9.1-9-9.1-6.7 0-11.9 5.8-11.9 11.3 0 6.2 4.4 9.2 9.3 9.2zm1.6-4.8c-.9-.8-.4-2.3 1.4-4.6 1.9-2.3 3.4-3.1 4.3-2.2.9.8.4 2.3-1.4 4.6-1.9 2.2-3.4 3-4.3 2.2z"/></g></svg>
