<svg height="16" viewBox="0 0 16 16" width="16" xmlns="http://www.w3.org/2000/svg" xmlns:xlink="http://www.w3.org/1999/xlink"><filter id="a" height="100%" width="100%" x="0%" y="0%"><feColorMatrix color-interpolation-filters="sRGB" values="0 0 0 0 1 0 0 0 0 1 0 0 0 0 1 0 0 0 1 0"/></filter><mask id="b"><g filter="url(#a)"><path d="m-1.6-1.6h19.2v19.2h-19.2z" fill-opacity=".5"/></g></mask><clipPath id="c"><path d="m0 0h1600v1200h-1600z"/></clipPath><mask id="d"><g filter="url(#a)"><path d="m-1.6-1.6h19.2v19.2h-19.2z" fill-opacity=".7"/></g></mask><clipPath id="e"><path d="m0 0h1600v1200h-1600z"/></clipPath><mask id="f"><g filter="url(#a)"><path d="m-1.6-1.6h19.2v19.2h-19.2z" fill-opacity=".35"/></g></mask><clipPath id="g"><path d="m0 0h1600v1200h-1600z"/></clipPath><path d="m7.957031 2c-.082031 0-.164062.003906-.246093.007812-.1875.011719-.375.03125-.5625.0625-1.582032.226563-3.007813 1.070313-3.96875 2.34375-.804688 1.074219-1.183594 2.332032-1.179688 3.585938h2.003906c0-.832031.253906-1.671875.796875-2.398438 1.335938-1.777343 3.820313-2.113281 5.597657-.78125.429687.320313.769531.734376 1.03125 1.1875h-1.4375c-.550782 0-1 .449219-1 1v1h6v-6h-1c-.550782 0-1 .449219-1 1v1.6875c-1.113282-1.695312-3.007813-2.710937-5.039063-2.695312zm0 0" fill="#222"/><path d="m8.035156 15.007812c.082032 0 .164063-.003906.246094-.007812.1875-.011719.375-.03125.5625-.0625 1.582031-.226562 3.007812-1.066406 3.96875-2.34375.804688-1.074219 1.183594-2.332031 1.179688-3.585938h-2.003907c-.003906.832032-.257812 1.675782-.796875 2.398438-1.335937 1.777344-3.820312 2.113281-5.597656.78125-.429688-.320312-.769531-.734375-1.03125-1.1875h1.4375c.550781 0 1-.449219 1-1v-1h-6v6h1c.550781 0 1-.449219 1-1v-1.6875c1.113281 1.695312 3.007812 2.710938 5.035156 2.695312zm0 0" fill="#222"/><g mask="url(#b)"><g clip-path="url(#c)" transform="translate(-760 -724)"><path d="m550 182c-.351562.003906-.695312.101562-1 .28125v3.4375c.304688.179688.648438.277344 1 .28125 1.105469 0 2-.894531 2-2s-.894531-2-2-2zm0 5c-.339844 0-.679688.058594-1 .175781v6.824219h4v-4c0-1.65625-1.34375-3-3-3zm0 0"/></g></g><g mask="url(#d)"><g clip-path="url(#e)" transform="translate(-760 -724)"><path d="m569 182v4c1.105469 0 2-.894531 2-2s-.894531-2-2-2zm0 5v7h3v-4c0-1.65625-1.34375-3-3-3zm0 0"/></g></g><g mask="url(#f)"><g clip-path="url(#g)" transform="translate(-760 -724)"><path d="m573 182.269531v3.449219c.613281-.355469.996094-1.007812 1-1.71875 0-.714844-.382812-1.375-1-1.730469zm0 4.90625v6.824219h2v-4c0-1.269531-.800781-2.402344-2-2.824219zm0 0"/></g></g></svg>