<svg height="16" viewBox="0 0 16 16" width="16" xmlns="http://www.w3.org/2000/svg"><path class="warning" d="m9.5 8c-.832031 0-1.5.667969-1.5 1.5v5c0 .832031.667969 1.5 1.5 1.5h5c.832031 0 1.5-.667969 1.5-1.5v-5c0-.832031-.667969-1.5-1.5-1.5zm1.5 1h2v2.5s0 .5-.5.5h-1c-.5 0-.5-.5-.5-.5zm.5 4h1c.277344 0 .5.222656.5.5v1c0 .277344-.222656.5-.5.5h-1c-.277344 0-.5-.222656-.5-.5v-1c0-.277344.222656-.5.5-.5zm0 0" fill="#ff7800"/><path d="m5.4628906 0c-2.2595357 0-4.1269531 2.6040527-4.1269531 5.796875 0 1.2979509.2925385 2.7018312.6875 3.0664062v1.7792968h.4746094v-1.783203c.2416714-.1706621.4192013-.5435184.4433593-.9179688-.7531786-.2128547-1.2949218-.9164511-1.2949218-1.71875 0-.4912034.1979216-.9335013.5253906-1.2773437.1637344-2.194042 1.6028896-4.14257813 3.2402344-4.14257812.9824065 0 1.4414062.73670702 1.4414062 2.09570312l-3.9121094 2.0625c-.5730707.294722-.8359374.7705153-.8359374 1.2617187 0 .7368052.6049917 1.3417969 1.3417968 1.3417969.3602159 0 .6076575-.0974 1.1152344-.359375l1.9648438-1.0820312c.8514191-.4748301 1.1621093-1.0481306 1.1621093-2.2597657v-1.0800781c0-1.719212-.7529518-2.7832031-2.2265625-2.7832031zm5.0742184 0c-1.4736102 0-2.2265621 1.0803646-2.2265621 2.7832031v1.0644531c0 1.2116351.3106892 1.7849357 1.1621093 2.2597657l1.9824218 1.0800781c.507577.2783485.753066.3613281 1.113281.3613281.736806 0 1.341797-.6069448 1.341797-1.34375 0-.5075769-.260914-.9650436-.833984-1.2597656l-3.9296876-2.03125c0-1.3589962.4589992-2.09570313 1.4414066-2.09570312 1.637345 0 3.076499 1.93216262 3.240234 4.14257812.343843.3438424.525391.7861403.525391 1.2773437 0 .5540815-.266838 1.0616474-.673828 1.3925782h.800781c.114796-.5489805.183594-1.1985118.183593-1.8183594 0-3.2091958-1.867417-5.8125-4.126953-5.8125zm-7.1210934 5.3710938c.4584566 0 .8339844.3767324.8339844.8515624s-.3755278.8515625-.8339844.8515626c-.4748299 0-.8515625-.3767326-.8515625-.8515626 0-.4584565.3767326-.8515624.8515625-.8515624zm9.1679684 0c.47483 0 .851563.3767324.851563.8515624s-.376733.8515625-.851563.8515626c-.458456 0-.851562-.3767326-.851562-.8515626 0-.4584565.376732-.8515624.851562-.8515624zm-9.1679684.3261718c-.294722 0-.5253906.2306685-.5253906.5253906s.2306686.5234375.5253906.5234376c.2783486 0 .5078125-.2287155.5078125-.5234376 0-.2783486-.2294639-.5253906-.5078125-.5253906zm9.1679684 0c-.278348 0-.523437.2306685-.523437.5253906.01637.2947221.245089.5234375.523437.5234376.294722 0 .525391-.2287155.525391-.5234376 0-.2783486-.230669-.5253906-.525391-.5253906z" fill="#2e3436" stroke-width=".163735"/></svg>
