<svg height="16" viewBox="0 0 16 16" width="16" xmlns="http://www.w3.org/2000/svg" xmlns:xlink="http://www.w3.org/1999/xlink"><filter id="a" color-interpolation-filters="sRGB" height="1.583392" width="1.356625" x="-.178313" y="-.291696"><feGaussianBlur stdDeviation=".78930292"/></filter><filter id="b" color-interpolation-filters="sRGB" height="1.181263" width="1.110805" x="-.055403" y="-.090631"><feGaussianBlur stdDeviation=".22663769"/></filter><filter id="c" color-interpolation-filters="sRGB" height="1.127264" width="1.077796" x="-.038898" y="-.063632"><feGaussianBlur stdDeviation=".16554592"/></filter><g transform="translate(-17 -17)"><path d="m19.514751 20.89585c-.6807 0-1.2286.548-1.2286 1.2287v5.7509c0 .6807.5479 1.2287 1.2286 1.2287h10.2123c.6807 0 1.2286-.548 1.2286-1.2287v-.7145h.5002c.0089 0 .0175-.0009.0262-.0018.0086-.0008.0177-.0018.0261-.0034.0083-.0017.0164-.0046.0244-.007.008-.0025.0167-.0054.0244-.0088.0078-.0033.0152-.0064.0226-.0104.0074-.0039.0141-.0076.021-.0122.0068-.0046.0128-.0104.0191-.0157.0064-.0053.0134-.0099.0192-.0157s.0104-.0128.0157-.0191c.0052-.0064.011-.0124.0157-.0192.0045-.0068.0083-.0137.0122-.0209.0039-.0073.0072-.015.0104-.0227.0033-.0077.0062-.0162.0088-.0244.0025-.008.0052-.016.0069-.0244s.0026-.0174.0035-.0261.0018-.0172.0018-.0262v-.1742-3.4819-.1743c0-.0089-.0009-.0175-.0018-.0261-.0009-.0087-.0018-.0178-.0035-.0262-.0017-.0083-.0045-.0164-.0069-.0244-.0025-.0081-.0055-.0167-.0088-.0244-.0033-.0078-.0064-.0152-.0104-.0226-.004-.0073-.0076-.0141-.0122-.021-.0047-.0068-.0105-.0128-.0157-.0191-.0053-.0064-.0099-.0134-.0157-.0192s-.0128-.0104-.0192-.0157c-.0063-.0052-.0123-.011-.0191-.0157-.0068-.0045-.0138-.0083-.021-.0122-.0073-.0039-.0149-.0072-.0226-.0104-.0078-.0033-.0162-.0062-.0244-.0087-.008-.0025-.016-.0053-.0244-.007-.0085-.0017-.0174-.0026-.0261-.0035s-.0173-.0017-.0262-.0017h-.5002v-.6901c0-.6807-.5479-1.2287-1.2286-1.2287zm.0575.7128h10.0973c.2923 0 .5281.2357.5281.5281v.9358.1743c0 .1426.1153.2579.2579.2579h.5001v2.9661h-.5001c-.1426 0-.2579.1153-.2579.2579v.1743.9602c0 .2923-.2358.5281-.5281.5281h-10.0973c-.2923 0-.5281-.2358-.5281-.5281v-5.7265c0-.2924.2358-.5281.5281-.5281z" fill="#f06" filter="url(#a)" stroke="#f06" stroke-linecap="round" stroke-linejoin="bevel"/><path d="m19.51475 20.89585c-.6807 0-1.2286.548-1.2286 1.2287v5.7509c0 .6807.5479 1.2287 1.2286 1.2287h10.2123c.6807 0 1.2286-.548 1.2286-1.2287v-.7145h.5002c.0089 0 .0175-.0009.0262-.0018.0086-.0008.0177-.0018.0261-.0034.0083-.0017.0164-.0046.0244-.007.008-.0025.0167-.0054.0244-.0088.0078-.0033.0152-.0064.0226-.0104.0074-.0039.0141-.0076.021-.0122.0068-.0046.0128-.0104.0191-.0157.0064-.0053.0134-.0099.0192-.0157s.0104-.0128.0157-.0191c.0052-.0064.011-.0124.0157-.0192.0045-.0068.0083-.0137.0122-.0209.0039-.0073.0072-.015.0104-.0227.0033-.0077.0062-.0162.0088-.0244.0025-.008.0052-.016.0069-.0244s.0026-.0174.0035-.0261.0018-.0172.0018-.0262v-.1742-3.4819-.1743c0-.0089-.0009-.0175-.0018-.0261-.0009-.0087-.0018-.0178-.0035-.0262-.0017-.0083-.0045-.0164-.0069-.0244-.0025-.0081-.0055-.0167-.0088-.0244-.0033-.0078-.0064-.0152-.0104-.0226-.004-.0073-.0076-.0141-.0122-.021-.0047-.0068-.0105-.0128-.0157-.0191-.0053-.0064-.0099-.0134-.0157-.0192s-.0128-.0104-.0192-.0157c-.0063-.0052-.0123-.011-.0191-.0157-.0068-.0045-.0138-.0083-.021-.0122-.0073-.0039-.0149-.0072-.0226-.0104-.0078-.0033-.0162-.0062-.0244-.0087-.008-.0025-.016-.0053-.0244-.007-.0085-.0017-.0174-.0026-.0261-.0035s-.0173-.0017-.0262-.0017h-.5002v-.6901c0-.6807-.5479-1.2287-1.2286-1.2287zm.0575.7128h10.0973c.2923 0 .5281.2357.5281.5281v.9358.1743c0 .1426.1153.2579.2579.2579h.5001v2.9661h-.5001c-.1426 0-.2579.1153-.2579.2579v.1743.9602c0 .2923-.2358.5281-.5281.5281h-10.0973c-.2923 0-.5281-.2358-.5281-.5281v-5.7265c0-.2924.2358-.5281.5281-.5281z" fill="#fff" stroke-width=".999887"/><path d="m19.514751 20.89585c-.6807 0-1.2286.548-1.2286 1.2287v.0001 5.7508.0003c.0001.6806.548 1.2284 1.2286 1.2284h.0001 10.2122.0003c.6805-.0002 1.2283-.5481 1.2283-1.2287v-.0002-.7143h.0002.5.0005c.0087 0 .0172-.0009.0257-.0018h.0005c.0084-.0008.0173-.0018.0256-.0034l.0005-.0001c.0081-.0017.016-.0045.0239-.0069l.0005-.0002c.0078-.0024.0163-.0053.0239-.0086l.0005-.0002c.0076-.0032.0148-.0063.0221-.0102l.0004-.0002c.0072-.0038.0138-.0075.0206-.012l.0004-.0003c.0066-.0045.0125-.0102.0187-.0154l.0004-.0003c.0063-.0052.0131-.0097.0188-.0154l.0003-.0004c.0057-.0057.0102-.0125.0154-.0187l.0003-.0004c.0051-.0062.0108-.0121.0154-.0188l.0002-.0004c.0044-.0067.0082-.0134.012-.0205l.0002-.0005c.0038-.0071.007-.0147.0102-.0222l.0002-.0005c.0032-.0075.006-.0159.0086-.0239l.0001-.0005c.0025-.0078.0051-.0157.0068-.0239l.0001-.0005c.0016-.0083.0025-.0171.0034-.0256v-.0005c.0009-.0085.0018-.0169.0018-.0257v-.0003-.1739-.0004-3.4815-.0003-.174-.0005c-.0001-.0088-.0009-.0172-.0018-.0256l-.0001-.0005c-.0009-.0086-.0018-.0175-.0034-.0257l-.0001-.0005c-.0017-.0081-.0045-.0161-.0068-.0239l-.0002-.0005c-.0025-.008-.0054-.0164-.0086-.0239l-.0002-.0005c-.0033-.0076-.0063-.0148-.0102-.0221l-.0003-.0004c-.0039-.0072-.0074-.0138-.0119-.0206l-.0003-.0004c-.0047-.0066-.0103-.0125-.0154-.0187l-.0004-.0004c-.0051-.0063-.0097-.0131-.0153-.0188l-.0004-.0004c-.0057-.0056-.0126-.0101-.0188-.0153l-.0004-.0003c-.0062-.0051-.0121-.0108-.0187-.0154l-.0005-.0003c-.0066-.0044-.0135-.0081-.0205-.0119l-.0005-.0002c-.0071-.0038-.0146-.0071-.0221-.0102l-.0005-.0002c-.0077-.0032-.0159-.006-.0239-.0085l-.0005-.0002c-.0079-.0024-.0157-.0051-.0239-.0068l-.0006-.0001c-.0083-.0016-.017-.0025-.0255-.0034h-.0006c-.0085-.0009-.0169-.0017-.0256-.0017h-.0003-.4999v-.0003-.6898-.0007c-.0004-.6804-.5482-1.228-1.2286-1.228h-.0002zm.0575.7128h6.7317 3.3661c.1946.0003.3515.1573.3515.3521.0975 0 .1761.0785.1761.176v.6241.3117.1164.0579c0 .0952.0768.1721.1719.1722.0002.0474.0385.0857.086.0857h.3335.1666v1.9776.9885h-.3336-.1665c-.0952 0-.1721.0769-.1722.1719-.0474.0002-.0857.0386-.0857.086v.1164.0579.6404.3198c0 .195-.1572.3523-.3521.3524-.0002.0973-.0787.1757-.176.1757h-6.7317c-.0263 0-3.366 0-3.3662 0-.1946-.0003-.3515-.1574-.3515-.3521-.0974 0-.176-.0786-.176-.1762v-3.8175-1.9094c.0003-.1946.1574-.3515.352-.3515 0-.0974.0786-.176.1761-.176z" style="fill:#f59;stroke:#f59;stroke-width:.4;stroke-linecap:round;stroke-linejoin:bevel;filter:url(#b)"/><path d="m19.51475 20.89585c-.6807 0-1.2286.548-1.2286 1.2287v.0002 5.7507.0006c.0004.6804.5482 1.2281 1.2286 1.2281h.0003 10.212.0007c.6804-.0004 1.2279-.5482 1.2279-1.2287v-.0004-.7141h.0002.5.0003c.0088 0 .0173-.0009.0259-.0018h.0003c.0085-.0008.0175-.0018.0258-.0034l.0003-.0001c.0082-.0017.0162-.0045.0241-.0069l.0003-.0001c.0079-.0025.0165-.0054.0241-.0087l.0003-.0001c.0077-.0033.015-.0064.0223-.0103l.0003-.0001c.0073-.0039.0139-.0076.0207-.0121l.0002-.0002c.0068-.0045.0127-.0103.0189-.0155l.0002-.0002c.0064-.0052.0133-.0098.019-.0155l.0002-.0002c.0057-.0058.0103-.0127.0155-.0189l.0002-.0002c.0052-.0063.0109-.0123.0155-.019l.0002-.0002c.0044-.0068.0082-.0136.012-.0207l.0002-.0002c.0038-.0073.0071-.0149.0102-.0225l.0001-.0003c.0033-.0076.0062-.016.0087-.0241l.0001-.0003c.0025-.0079.0052-.0158.0068-.0241l.0001-.0003c.0017-.0083.0025-.0172.0034-.0258l.0001-.0003c.0009-.0086.0017-.017.0017-.0259v-.0002-.174-.0002-3.4817-.0002-.1741-.0003c0-.0088-.0009-.0173-.0018-.0258v-.0003c-.0009-.0086-.0018-.0176-.0035-.0259v-.0003c-.0017-.0082-.0045-.0162-.0069-.0241v-.0003c-.0025-.008-.0055-.0165-.0088-.0241l-.0001-.0003c-.0032-.0077-.0063-.015-.0103-.0223l-.0001-.0002c-.0039-.0073-.0075-.014-.0121-.0208l-.0001-.0002c-.0047-.0067-.0104-.0127-.0156-.0189l-.0001-.0002c-.0053-.0064-.0098-.0133-.0156-.019l-.0001-.0002c-.0058-.0057-.0127-.0103-.0191-.0155l-.0002-.0002c-.0062-.0051-.0121-.0109-.0189-.0155l-.0002-.0002c-.0067-.0044-.0136-.0082-.0208-.012l-.0002-.0001c-.0072-.0039-.0147-.0072-.0224-.0103l-.0002-.0001c-.0077-.0033-.0161-.0061-.0242-.0086l-.0002-.0001c-.0079-.0025-.0159-.0052-.0242-.0069l-.0002-.0001c-.0085-.0016-.0173-.0025-.0259-.0034h-.0002c-.0086-.0009-.0172-.0017-.026-.0017h-.0001-.5001v-.0002-.6899-.0004c-.0001-.6805-.548-1.2283-1.2286-1.2283h-.0003zm.0575.7128h3.3661 6.7315c.0973.0001.1758.0786.1758.176.1948 0 .352.1571.352.3521v.3124.6234.0584.1159c0 .0477.0385.0863.086.0865.0003.0948.0771.1714.1719.1714h.167.3331v.989 1.9771h-.1669-.3332c-.0477 0-.0863.0384-.0865.0859-.0948.0003-.1714.0771-.1714.172v.0584.1159.3205.6397c0 .0976-.0786.1764-.176.1766-.0003.1946-.1574.3515-.3521.3515h-3.366c-.0523 0-6.7315 0-6.7316 0-.0973-.0002-.1757-.0787-.1757-.1761-.1949 0-.3521-.1572-.3521-.3521v-1.9088-3.8179c.0002-.0973.0787-.1758.1761-.1758 0-.1949.1572-.352.352-.352z" fill="#fac" filter="url(#c)" stroke="#fac" stroke-width=".25"/></g><g transform="translate(-.000027 -.000042)"><path d="m2.5147543 3.8958917c-.6806522 0-1.2286184.5479663-1.2286184 1.2286184v5.7509799c0 .680652.5479662 1.228618 1.2286184 1.228618h10.2123467c.680652 0 1.228618-.547966 1.228618-1.228618v-.714515h.500161c.008923 0 .017462-.000874.026144-.001785.008655-.000876.017747-.001785.026143-.00348.008298-.001695.016382-.00455.024395-.00696.00803-.002498.016694-.005442.024395-.008744.007852-.003301.01524-.006424.022655-.010457.007316-.003926.014071-.007585.020914-.012198.006871-.00464.012814-.010439.019175-.015686.006336-.005264.013358-.009868.019166-.015686.0058-.0058.01044-.012813.015687-.019166.005264-.006335.011064-.012322.015686-.019166.00455-.006781.008298-.013714.012197-.020915.003926-.007317.007228-.014946.010458-.022655.003301-.0077626.006156-.0162124.008744-.0243945.002498-.0080305.005264-.0159985.00696-.0243948.001695-.0084766.002587-.0173993.003479-.0261436.000877-.008655.001785-.0172298.001785-.0261436v-.1742209-3.481957-.1742722c.000001-.0089254-.000874-.0174582-.001785-.0261409-.000875-.0086729-.001784-.0177455-.003479-.0261409-.001696-.0083338-.004551-.0163839-.00696-.0243983-.002498-.0080751-.005443-.0166927-.008744-.0243984-.003302-.007843-.006425-.01524-.010458-.0226557-.003926-.0072988-.007584-.0140667-.012197-.0209131-.00464-.0068526-.01044-.0128094-.015686-.0191696-.005265-.0063529-.009869-.0133528-.015687-.0191696-.005799-.0058176-.012813-.010444-.019166-.0156843-.006335-.0052377-.012322-.0110669-.019175-.0156844-.006781-.0045506-.013714-.0082982-.020914-.0121992-.007317-.0039528-.014946-.0072095-.022655-.0104565-.007763-.0032836-.016213-.0062013-.024395-.0087175-.00803-.0024984-.016007-.0052645-.024395-.0069687-.008476-.0017132-.017399-.0026144-.026143-.0034888-.008655-.0008757-.01723-.0017399-.026144-.0017399h-.500161v-.6901145c0-.6806521-.547966-1.2286184-1.228618-1.2286184zm.0575097.7127729h10.097327c.292303 0 .528045.2357422.528045.5280446v.9358412.1742722c0 .1426297.115292.2579227.257922.2579227h.500161v2.9661116h-.500161c-.14263 0-.257922.1152929-.257922.2579227v.1742718.9602396c0 .292303-.235742.528044-.528045.528044h-10.0973269c-.2923021 0-.5280445-.235741-.5280445-.528044v-5.7265818c0-.2923024.2357424-.5280446.5280444-.5280446z" stroke-width=".892172"/><path d="m2.5722646 4.6086646c-.2923015 0-.5280446.2357425-.5280446.5280446v5.7265818c0 .292303.2357431.528044.5280446.528044h10.0973264c.292303 0 .528045-.235741.528045-.528044v-.9602405-.1742712c0-.1426294.115292-.2579224.257922-.2579224h.500161v-2.9661116h-.500161c-.14263 0-.257922-.1152931-.257922-.2579227v-.1742722-.9358412c0-.2923021-.235742-.5280446-.528045-.5280446z" fill="#0f0" stroke-width=".892"/><path d="m6.6038924 5.1865516c-.3996068-.0074001-.8510144.1924033-1.1544195.6142104-.0444008.059201-.0814014.118402-.1258022.2146036.5106087.0888016.9250157.5476093.9250157 1.0508178 0 .1406024-.0296005.2738046-.0814014.3922066.3108052-.0444007.5032085-.118402.6808115-.2146036.3922066-.2220037.6956117-.5846099.6956117-1.1100188 0-.5994101-.4218071-.9398158-.9398158-.947216zm.0888015 1.0138172c-.0444008.0370006-.118402.0370006-.1628028-.0148003-.0370006-.0518009-.0296005-.118402.0148003-.1628027l.3478058-.2886049c.0444008-.0370006.118402-.0296005.1554027.0148002.0444007.0444008.0370006.118402-.0074001.1554027zm-.4292073 3.1598534h.1850031c.1406024 0 .2368041-.0740013.2368041-.2220038v-1.5540262c-.1998034.0740012-.4218072.118402-.6660113.1332022v1.420824c0 .1406024.0962016.2220038.2442041.2220038zm2.545643-4.1736706c-.5180087.0074002-.9398159.3478059-.9398159.947216 0 .5180088.3034052.8806149.6956118 1.1100188.177603.0962016.3700063.1702029.6808115.2146036-.0518009-.118402-.0814014-.2516042-.0814014-.3922066 0-.5032085.414407-.9546161.9250154-1.0508178-.037-.0962016-.081401-.1554026-.1258019-.2146036-.3034051-.414407-.7474126-.6142104-1.1544195-.6142104zm-.0888015 1.0138172-.3478058-.2886049c-.0518009-.0370006-.0518009-.1110019-.0148003-.1554026.0370006-.0518009.1110019-.059201.1554026-.0148003l.3478059.2886049c.0518009.0370006.0518009.1110019.0148003.1628027-.0370007.0444008-.1110019.0444008-.1554027.0074002zm.4292073 3.1598534c.1480025 0 .2442041-.0740013.2442041-.2220038v-1.420824c-.2442041-.0148002-.4662079-.059201-.6660112-.1332022v1.5540262c0 .1480025.0962016.2220038.236804.2220038z" stroke-width=".074001"/><path d="m5.3310709 7.7469949c.3626061 0 .6882116-.2294039.6882116-.6808115 0-.4070069-.3848065-.8362141-.8806149-.8362141-.4218071 0-.6660112.3330056-.6660112.6734113 0 .5106087.4366073.8436143.8584145.8436143zm-.118402-.355206c-.0666012.059201-.177603 0-.3182054-.1702029-.1332022-.1702028-.1702029-.2812047-.1036017-.3404057.0666011-.059201.1776029-.0074002.3182053.1628027.1332023.177603.1702029.2886049.1036018.3478059zm4.8692821.355206c.421807 0 .858415-.3330056.858415-.8436143 0-.3404057-.244204-.6734113-.666012-.6734113-.495808 0-.8806145.4292072-.8806145.8362141 0 .4588078.3256055.6808115.6882115.6808115zm.118402-.355206c-.066601-.059201-.0296-.1702029.103602-.3404057.140602-.1702029.251604-.2294039.318205-.1628028.066601.059201.029601.1702029-.103601.3404057-.140603.1628028-.251605.2220038-.318206.1628028z" stroke-width=".074001"/><circle cx="6.148371" cy="10.688929" r=".452277"/><circle cx="7.706511" cy="10.688929" fill="#ff7800" r=".452277"/><circle cx="9.26465" cy="10.688929" r=".452277"/></g></svg>