<svg height="16" viewBox="0 0 16 16" width="16" xmlns="http://www.w3.org/2000/svg"><path class="warning" d="m9.5 8c-.832031 0-1.5.667969-1.5 1.5v5c0 .832031.667969 1.5 1.5 1.5h5c.832031 0 1.5-.667969 1.5-1.5v-5c0-.832031-.667969-1.5-1.5-1.5zm1.5 1h2v2.5s0 .5-.5.5h-1c-.5 0-.5-.5-.5-.5zm.5 4h1c.277344 0 .5.222656.5.5v1c0 .277344-.222656.5-.5.5h-1c-.277344 0-.5-.222656-.5-.5v-1c0-.277344.222656-.5.5-.5zm0 0" fill="#ff7800"/><path d="m5.1152344.00195313c-.3748285.0115783-.7642004.10495016-1.1367188.28906249-.0601099.03035997-.1200344.06321629-.1777344.09765626-.0576899.03444996-.1129988.07102503-.1679687.109375.1441199.07117992.2801464.15242384.4101563.24609374.1299998.09365991.2539976.19829011.3671874.31249998.4034396.4090596.6668339.9175718.7773438 1.4570313.1105099.5394594.0678917 1.1097086-.1425781 1.6425781.1245899-.02301.2478807-.05364.3691406-.09375.1212699-.04011.2398689-.0880913.3554687-.1445312.5961695-.2944198 1.0351122-.7639968 1.2636719-1.2851563.2285498-.5211695.2474298-1.0949036 0-1.5957031-.2474797-.50071953-.7147787-.83366016-1.2675781-.96875002-.2072998-.05066247-.4254936-.07335324-.6503906-.06640625zm5.7695316 0c-.224897-.00694699-.443091.01574378-.650391.06640625-.5527994.13508986-1.0200984.46803049-1.2675781.96875002-.2474298.5007995-.2285498 1.0745336 0 1.5957031.2285597.5211595.6675024.9907365 1.2636721 1.2851563.1156.0564399.234199.1044212.355469.1445312.121259.04011.24455.07074.36914.09375-.21047-.5328695-.253088-1.1031187-.142578-1.6425781.11051-.5394595.373904-1.0479717.777344-1.4570313.11319-.11420987.237187-.21884007.367187-.31249998.13001-.0936699.266037-.17491382.410157-.24609374-.05497-.03834997-.110279-.07492504-.167969-.109375-.0577-.03443997-.117625-.06729629-.177735-.09765626-.372518-.18411233-.76189-.27748419-1.136718-.28906249zm-8.5507816.72460937c-.2319098 0-.4291183.01773444-.6113282.08398438v1.32421872c.1822099-.1325198.3959884-.1972656.6113282-.1972656.6128794 0 1.1289062.5296987 1.1289062 1.1425781 0 .6128894-.5160268 1.109375-1.1289062 1.109375-.6294594 0-1.125-.4799156-1.125-1.109375v-2.0703125c-.74540928.4306796-1.2089844 1.1913853-1.2089844 2.0527344 0 .999949.60873711 1.8333553 1.4726562 2.171875v.8925781c0 .2969897.1804341.4450275.4648438.4609375v4.4101564h.7949219v-4.4101564c.2853597-.01699.4648437-.1790378.4648437-.4609375v-.8964843c.8632292-.3465597 1.4726563-1.1938298 1.4726563-2.1679688 0-1.2920287-1.0770388-2.3359375-2.3359375-2.3359375zm11.3320316 0c-1.258899 0-2.335938 1.0439088-2.335938 2.3359375 0 .974139.609427 1.8214091 1.472656 2.1679688v.8964843c0 .2818997.179484.4439475.464844.4609375v.9042969h.794922v-.9042969c.28441-.01591.464844-.1639478.464844-.4609375v-.8925781c.863919-.3385197 1.472656-1.171926 1.472656-2.171875 0-.8613491-.463575-1.6220548-1.208984-2.0527344v2.0703125c0 .6294594-.495541 1.109375-1.125 1.109375-.61288 0-1.128907-.4964856-1.128907-1.109375 0-.6128794.516027-1.1425781 1.128907-1.1425781.215339 0 .429118.0647458.611328.1972656v-1.32421872c-.18221-.06624994-.379419-.08398438-.611328-.08398438zm-11.3320316 1.7402344c-.3147297 0-.6113282.2819916-.6113282.6132812 0 .3147297.2800285.6113281.6113282.6113281.3312896 0 .6132812-.2965984.6132812-.6113281 0-.3147197-.2985615-.6132812-.6132812-.6132812zm11.3320316 0c-.31472 0-.613282.2985615-.613282.6132812 0 .3147297.281992.6113281.613282.6113281.331299 0 .611328-.2965984.611328-.6113281 0-.3312896-.296599-.6132812-.611328-.6132812z" fill="#2e3436" stroke-linecap="round" stroke-linejoin="round" stroke-width=".176705"/></svg>
