<svg height="16" viewBox="0 0 16 16" width="16" xmlns="http://www.w3.org/2000/svg"><path class="warning" d="m9.5 8c-.832031 0-1.5.667969-1.5 1.5v5c0 .832031.667969 1.5 1.5 1.5h5c.832031 0 1.5-.667969 1.5-1.5v-5c0-.832031-.667969-1.5-1.5-1.5zm1.5 1h2v2.5s0 .5-.5.5h-1c-.5 0-.5-.5-.5-.5zm.5 4h1c.277344 0 .5.222656.5.5v1c0 .277344-.222656.5-.5.5h-1c-.277344 0-.5-.222656-.5-.5v-1c0-.277344.222656-.5.5-.5zm0 0" fill="#ff7800"/><g fill="#2e3436" transform="matrix(.15403705 0 0 .15403705 -1.858371 -4.097385)"><path d="m64 26.6c-21.499979 0-34.501135 14.594474-34.501135 35.794452 0 .999999.395116 1.772654 1.103123 2.206247v4.666085c-1.535497.928288-2.309991 2.743765-2.10481 4.932357.699999 4.099996 3.508937 10.703071 6.808934 16.103066 5.199995 8.999991 8.290575 12.096323 11.690572 12.096323 4.299996 0 6.306745-4.003697 4.006747-8.203693l-13.009248-22.797883c-1.007492-1.740213-2.514733-2.624856-4.298378-2.764149v-4.019426c.698248-.430844 1.103124-1.207435 1.103124-2.218927.1-18.699981 11.201089-30.494388 29.201071-30.494388s29.102508 11.80565 29.302508 30.405631c0 .959349.368887 1.68846 1.001687 2.13017v4.19694c-1.854563.135058-3.287815 1.018631-4.298378 2.764149l-2.99238 5.274705h11.893445c.254746-.883796.469262-1.730543.59594-2.472518.205181-2.188592-.569313-4.004069-2.10481-4.932357v-4.754842c.698248-.430844 1.103123-1.194755 1.103123-2.206247 0-21.199979-13.001157-35.705695-34.501135-35.705695z"/><path d="m64 35.196755c-9.199991 0-15.598575 2.898197-20.19857 8.698191 5.699994-3.099997 12.298578-4.590008 20.19857-4.590008s14.598576 1.490011 20.19857 4.590008c-4.499996-5.799994-10.998579-8.698191-20.19857-8.698191zm-21.225616 30.507068c-.743651-.005127-1.480709.18969-2.168208.59594-1.299999.699999-1.701686 1.995255-1.001687 3.195254l14.391323 25.207004c.799999 1.299998 2.009371 1.600249 3.30937.90025 2.199998-1.299999 2.794752-4.106064 1.394754-6.606061l-11.703252-20.591637c-.962499-1.718748-2.586266-2.689471-4.2223-2.70075zm42.362475 0c-1.613207.011279-3.203731.982002-4.23498 2.70075l-4.653405 8.267086h7.886698l4.070145-7.176642c.699999-1.199999.399749-2.495255-.90025-3.195254-.687499-.40625-1.434933-.601067-2.168208-.59594z"/></g></svg>
