<svg height="16" viewBox="0 0 16 16" width="16" xmlns="http://www.w3.org/2000/svg"><g fill="#2e3436"><circle cx="7.851777" cy="14.705316" r="1.294684"/><g transform="matrix(.1500407 0 0 .1500407 -1.602605 -3.991083)"><path d="m29 61.9c0 6.1 1.5 12.4 4.4 18.3-.9 1-1.2 3-.2 4.9l6.9 13.9c.6 1.2 2 1.9 3.4 1.9 1.5 0 2.9-.8 3.1-2.6l-7.7-15.7c-2.4-4.9-4.5-12.9-4.5-20.6 0-17.5 12-29.4 29.7-29.4s29.7 11.8 29.7 29.4c0 7.7-2.1 15.7-4.5 20.6l-7.7 15.7c.2 1.8 1.7 2.6 3.1 2.6 1.3 0 2.7-.7 3.4-1.9l6.8-13.8c1-2 .8-3.9-.1-4.9 2.7-6 4.2-12.3 4.2-18.4 0-19.7-13.6-35.3-35-35.3s-35 15.6-35 35.3z"/><path d="m47.1 74.7c-1.3-2.6-3.7-3.2-5.5-2.4-2.1.8-3.5 3.3-2 6.4l9 18.2c1.4 2.8 3.8 3.8 6.2 2.6 2.1-1 2.8-3.3 1.7-5.8zm33.8 0-9.3 19c-1.2 2.5-.4 4.8 1.6 5.8 2.4 1.2 4.9.2 6.3-2.6l9-18.2c1.5-3.2.1-5.6-2-6.4-1.9-.8-4.3-.2-5.6 2.4z"/></g></g></svg>