<svg height="16" viewBox="0 0 16 16" width="16" xmlns="http://www.w3.org/2000/svg"><g fill="#2e3436"><circle cx="7.851777" cy="14.705316" r="1.294684"/><path d="m4.7002463 4.8504577c1.3884206.0180281 2.596527-1.081887 2.5784952-2.4162135-.0180279-1.3162939-1.1720429-2.3981824-2.5784952-2.3981824-1.2802322 0-2.0736158.7933843-2.4342458 1.3523566-.1262186.1983466-.1803135.3966931-.1803135.6311024v.8835412c0 .2344091.0541.4327543.1803135.6310996.36063.5229125 1.1540136 1.2982645 2.4342458 1.3162961zm-1.5326752-1.4785787c-.1622812 0-.2885004-.1262188-.2885004-.2885028v-1.3162948c0-.1622839.1262192-.2885026.2885004-.2885026.1622854 0 .2885063.1262187.2885063.2885026v1.3162948c0 .162284-.1262209.2885028-.2885063.2885028zm1.8392088 6.274939h1.6769247v-4.8865179c-.4688177.3606287-1.0458247.5950378-1.6769247.6491321zm.5770068 1.96543h.5048802c.3606285 0 .5950377-.180313.5950377-.522911v-.847478h-1.6769247v.847478c0 .342598.2344099.522911.5770068.522911zm5.7159663-6.7617903c1.280234-.018028 2.091649-.7933836 2.434246-1.352358.126218-.1983467.180314-.3966925.180314-.6310995v-.8835412c0-.2344085-.0541-.4327536-.180314-.6311024-.360631-.558973-1.154012-1.3523566-2.434246-1.3523566-1.3884222 0-2.5604632 1.0818841-2.5784972 2.398181-.018035 1.3703897 1.190075 2.4522767 2.5784972 2.4522767zm1.532674-1.4785787c-.162284 0-.288503-.1262188-.288503-.2885028v-1.3162948c0-.1622839.126219-.2885026.288503-.2885026.162283 0 .288503.1262187.288503.2885026v1.3162948c0 .162284-.12622.2885028-.288503.2885028zm-1.839207 6.274939v-4.2373858c-.6311-.0540913-1.2081072-.2885034-1.6769242-.6491321v4.8865179zm-.577006 1.96543c.342599 0 .577006-.180313.577006-.522911v-.847478h-1.6769242v.847478c0 .342598.234407.522911.595035.522911z" stroke-width=".180314"/></g></svg>