<svg height="16" viewBox="0 0 16 16" width="16" xmlns="http://www.w3.org/2000/svg"><path class="st2" d="m5.950585 9.882965c.603381 0 1.269181-.374512 1.414825-1.144343l.249675-1.3316c.249674-1.394018-.790638-2.43433-2.496749-3.016905-.9987-.353706-1.976593-.49935-2.975293-.49935-.312094 0-.395319.104031-.395319.312094 0 .478543.249675.83225.728219.915475.790637.124837 1.373212.270481 2.018205.582574.249675.124838.353706.291288.291288.540963l-.312094 1.810143c-.16645 1.040312.540962 1.830949 1.477243 1.830949zm0-.707412c-.436931 0-.769831-.3329-.769831-.769831s.353706-.790637.769831-.790637c.436931 0 .769831.353706.769831.790637s-.3329.769831-.769831.769831zm0-.3329c.249675 0 .436931-.187256.436931-.436931s-.187256-.457738-.436931-.457738-.436931.208063-.436931.457738c-.020806.249675.187256.436931.436931.436931zm0 1.498049c-1.248374 0-2.122236-1.081924-1.914174-2.371911l.187256-1.102731c-.9987.249675-1.706112.686606-2.018205 1.331599.270481 1.185956.686606 2.267881 1.289987 3.328999.291287.145644.603381.208062 1.019505.208062 1.581275 0 2.996099-.769831 3.079324-2.309492-.312093.561768-.936281.915474-1.643693.915474zm4.140442-.457737c.936281 0 1.622887-.811444 1.456437-1.830949l-.312093-1.83095c-.041613-.249675.041612-.416125.312093-.540962.624187-.291287 1.227569-.457737 2.018206-.582575.478543-.062418.728218-.436931.728218-.915474 0-.208063-.104031-.312094-.395318-.312094-.9987 0-1.976593.16645-2.975293.49935-1.685306.582575-2.746424 1.622887-2.496749 3.016905l.249675 1.331599c.124837.811444.790637 1.16515 1.414824 1.16515zm0-.707412c-.436931 0-.790637-.3329-.790637-.769831s.353706-.790637.790637-.790637.769831.353706.769831.790637-.353706.769831-.769831.769831zm0-.3329c.249675 0 .436931-.187256.436931-.436931s-.187256-.457738-.436931-.457738-.457737.208063-.457737.457738.187256.436931.457737.436931zm0 1.498049c-.707412 0-1.331599-.353706-1.643693-.936281.104031 1.539662 1.49805 2.309493 3.079324 2.309493.416125 0 .728218-.041612 1.019506-.208062.603381-1.040312 1.019506-2.143043 1.289987-3.328999-.312094-.644993-1.019506-1.061118-2.018206-1.331599l.187257 1.10273c.187256 1.310794-.686606 2.392718-1.914175 2.392718zm-10.091027-.187256c0 1.185956.790637 1.976593 1.976593 1.976593.457737 0 .894668-.16645 1.144343-.3329-.644993-1.102731-1.102731-2.26788-1.394018-3.537061-.853056.083225-1.726918.790637-1.726918 1.893368zm16 0c0-1.081925-.853056-1.810143-1.726918-1.893368-.291287 1.248375-.749025 2.43433-1.394018 3.537061.249675.187256.686606.3329 1.144343.3329 1.206762 0 1.976593-.790637 1.976593-1.976593zm-10.049415-.977893c-.436931 0-.769831-.3329-.769831-.769831s.353706-.790637.769831-.790637c.436931 0 .769831.353706.769831.790637s-.3329.769831-.769831.769831zm0-.3329c.249675 0 .436931-.187256.436931-.436931s-.187256-.457738-.436931-.457738-.436931.208063-.436931.457738c-.020806.249675.187256.436931.436931.436931zm4.140442.3329c-.436931 0-.790637-.3329-.790637-.769831s.353706-.790637.790637-.790637.769831.353706.769831.790637-.353706.769831-.769831.769831zm0-.3329c.249675 0 .436931-.187256.436931-.436931s-.187256-.457738-.436931-.457738-.457737.208063-.457737.457738.187256.436931.457737.436931z" fill="#2e3436" stroke-width=".208062"/></svg>