<svg height="16" viewBox="0 0 16 16" width="16" xmlns="http://www.w3.org/2000/svg"><path d="m12.36812 2.9984755c-.14412.07118-.28185.15409-.41186.24776-.13.09366-.25228.19808-.36547.31229-.40344.40906-.66743.91756-.77794 1.45702s-.06754 1.10987.14293 1.64274c-.12459-.02301-.2481-.05476-.36936-.09487-.12127-.04011-.24028-.08859-.35588-.14503-.59617-.29442-1.03563-.76399-1.26419-1.28515-.22855-.52117-.24621-1.09392.00122-1.59472.24748-.50072.71313-.83465 1.26593-.96974.5528-.1351 1.19274-.07137 1.78877.22321.06011.03036.11908.06281.17678.09725.05769.03445.1141.07089.16907.10924zm1.29763.22971c.23191 0 .42975.01734.61196.08359v1.32485c-.18221-.13252-.39662-.19873-.61196-.19873-.61288 0-1.12769.53058-1.12769 1.14346 0 .61289.51481 1.10877 1.12769 1.10877.62946 0 1.12612-.47931 1.12612-1.10877v-2.07085c.74541.43068 1.20813 1.19215 1.20813 2.0535 0 .99995-.60918 1.83328-1.4731 2.1718v.89269c0 .29699-.17928.44463-.46369.46054v4.4098305h-.79491v-4.4098305c-.28536-.01699-.46527-.17864-.46527-.46054v-.89742c-.86323-.34656-1.4731-1.19293-1.4731-2.16707 0-1.29203 1.07692-2.33582 2.33582-2.33582zm0 1.73965c.31473 0 .61196.28223.61196.61352 0 .31473-.28066.61196-.61196.61196-.33129 0-.61352-.29723-.61352-.61196 0-.31472.2988-.61352.61352-.61352zm-10.03387-1.96936c.14412.07118.28185.15409.41186.24776.13.09366.25228.19808.36547.31229.40344.40906.66743.91756.77794 1.45702s.06754 1.10987-.14293 1.64274c.12459-.02301.2481-.05476.36936-.09487.12127-.04011.24028-.08859.35588-.14503.59617-.29442 1.03563-.76399 1.26419-1.28515.22855-.52117.24621-1.09392-.00122-1.59472-.24748-.50072-.71313-.83465-1.26593-.96974-.5528-.1351-1.19274-.07137-1.78877.22321-.06011.03036-.11908.06281-.17678.09725-.05769.03445-.1141.07089-.16907.10924zm-1.29763.22971c-.23191 0-.42975.01734-.61196.08359v1.32485c.18221-.13252.39662-.19873.61196-.19873.61288 0 1.12769.53058 1.12769 1.14346 0 .61289-.51481 1.10877-1.12769 1.10877-.62946 0-1.12612-.47931-1.12612-1.10877v-2.07085c-.74541.43068-1.20813 1.19215-1.20813 2.0535 0 .99995.60918 1.83328 1.4731 2.1718v.89269c0 .29699.17928.44463.46369.46054v4.4098305h.79491v-4.4098305c.28536-.01699.46527-.17864.46527-.46054v-.89742c.86323-.34656 1.4731-1.19293 1.4731-2.16707 0-1.29203-1.07692-2.33582-2.33582-2.33582zm0 1.73965c-.31473 0-.61196.28223-.61196.61352 0 .31473.28066.61196.61196.61196.33129 0 .61352-.29723.61352-.61196 0-.31472-.2988-.61352-.61352-.61352z" fill="#2e3436" stroke-linecap="round" stroke-linejoin="round" stroke-width=".176705"/></svg>