<svg height="16" viewBox="0 0 16 16" width="16" xmlns="http://www.w3.org/2000/svg"><path class="warning" d="m9.5 8c-.832031 0-1.5.667969-1.5 1.5v5c0 .832031.667969 1.5 1.5 1.5h5c.832031 0 1.5-.667969 1.5-1.5v-5c0-.832031-.667969-1.5-1.5-1.5zm1.5 1h2v2.5s0 .5-.5.5h-1c-.5 0-.5-.5-.5-.5zm.5 4h1c.277344 0 .5.222656.5.5v1c0 .277344-.222656.5-.5.5h-1c-.277344 0-.5-.222656-.5-.5v-1c0-.277344.222656-.5.5-.5zm0 0" fill="#ff7800"/><path class="st2" d="m13.898438 0c-.9987 0-1.975911.16710033-2.97461.5-1.6853042.5825744-2.7477215 1.6216084-2.4980468 3.015625l.25 1.3320312c.1248369.8114432.7918293 1.1660157 1.4160158 1.1660157.93628 0 1.621528-.8125273 1.455078-1.8320313l-.310547-1.8300781c-.041613-.2496748.040066-.4161787.310547-.5410156.624186-.2912867 1.228895-.4571934 2.019531-.5820313.478543-.0624179.726563-.43747308.726563-.9160156 0-.20806279-.103245-.3125-.394531-.3125zm-11.7558599.02148438c-.3120937 0-.3945312.10248408-.3945312.31054687 0 .47854252.2499721.83279075.7285156.91601565.7906362.1248369 1.3725858.2699385 2.0175781.5820312.2496748.1248379.3534336.2913409.2910156.5410157l-.3125 1.8105468c-.1664498 1.040311.5422356 1.8320313 1.4785157 1.8320313.6033804 0 1.2684186-.374701 1.4140625-1.1445313l.25-1.3320312c.2496737-1.3940166-.7899845-2.4350037-2.4960938-3.01757815-.998699-.35370565-1.9778635-.49804687-2.9765625-.49804687zm9.6757809 2.95312502.1875 1.1035156c.187256 1.3107927-.686494 2.3925781-1.914062 2.3925781-.7074114 0-1.3324377-.3529724-1.6445314-.9355469.0629604.9318154.5997826 1.5793927 1.3632813 1.9472657h2.8203121c.556666-.9954053.947792-2.0476759 1.205079-3.1757813-.312094-.6449923-1.01888-1.0615505-2.017579-1.3320312zm-7.5937496.0214844c-.998699.2496747-1.7074386.6870388-2.0195313 1.3320312.2704808 1.1859548.6876353 2.2670081 1.2910157 3.328125.2912867.1456439.6034076.2089844 1.0195312.2089844 1.5812734 0 2.9949001-.7708874 3.078125-2.3105469-.3120927.5617674-.9351668.9160156-1.6425781.9160156-1.2483728 0-2.1221243-1.081108-1.9140625-2.3710937zm-2.4980469 1.3945312c-.85305515.0832249-1.7265625.7898482-1.7265625 1.8925781 0 1.1859548.79060769 1.9765625 1.9765625 1.9765625.4577365 0 .8948565-.1655814 1.1445313-.3320312-.6449924-1.1027299-1.1032446-2.2679297-1.3945313-3.5371094zm12.5468755 0c-.252547 1.0823429-.632094 2.1168536-1.148438 3.0917969h2.53125c.221628-.3214051.34375-.7286249.34375-1.1992188 0-1.0819239-.852701-1.8093532-1.726562-1.8925781z" fill="#2e3436" stroke-width=".208062"/></svg>