<svg height="16" viewBox="0 0 16 16" width="16" xmlns="http://www.w3.org/2000/svg"><g transform="matrix(1.1915643 0 0 1.1915643 -1.532536 -1.532514)"><path d="m2.5147543 3.8958917c-.6806522 0-1.2286184.5479663-1.2286184 1.2286184v5.7509799c0 .680652.5479662 1.228618 1.2286184 1.228618h10.2123467c.680652 0 1.228618-.547966 1.228618-1.228618v-.714515h.500161c.0089 0 .01746-.000874.02614-.0018.0087-.000876.01775-.0018.02614-.0035.0083-.0017.01638-.0045.0244-.007.008-.0025.01669-.0054.0244-.0087.0079-.0033.01524-.0064.02265-.01046.0073-.0039.01407-.0076.02091-.0122.0069-.0046.01281-.01044.01917-.01569.0063-.0053.01336-.0099.01917-.01569.0058-.0058.01044-.01281.01569-.01917.0053-.0063.01106-.01232.01569-.01917.0046-.0068.0083-.01371.0122-.02091.0039-.0073.0072-.01495.01046-.02266.0033-.00776.0062-.016212.0087-.024395.0025-.00803.0053-.015998.007-.024395.0017-.00848.0026-.017399.0035-.026144.000877-.00866.0018-.01723.0018-.026144v-.1741674-3.481957-.1742722c.000001-.00893-.000874-.017458-.0018-.026141-.000875-.00867-.0018-.017746-.0035-.026141-.0017-.00833-.0046-.016384-.007-.024398-.0025-.00808-.0054-.016693-.0087-.024398-.0033-.00784-.0064-.01524-.01046-.022656-.0039-.0073-.0076-.014067-.0122-.020913-.0046-.00685-.01044-.012809-.01569-.01917-.0053-.00635-.0099-.013353-.01569-.01917-.0058-.00582-.01281-.010444-.01917-.015684-.0063-.00524-.01232-.011067-.01917-.015684-.0068-.00455-.01371-.0083-.02091-.012199-.0073-.00395-.01495-.00721-.02265-.010457-.0078-.00328-.01621-.0062-.0244-.00872-.008-.0025-.01601-.00526-.0244-.00697-.0085-.00171-.0174-.00261-.02614-.00349-.0087-.0008757-.01723-.00174-.02614-.00174h-.500161v-.6901093c0-.6806521-.547966-1.2286184-1.228618-1.2286184zm.05751.7127729h10.0973267c.292303 0 .528045.2357422.528045.5280446v.9358412.1742722c0 .1426297.115292.2579227.257922.2579227h.500161v2.9661116h-.500161c-.14263 0-.257922.1152929-.257922.2579227v.1742718.9602396c0 .292303-.235742.528044-.528045.528044h-10.0973269c-.2923021 0-.5280445-.235741-.5280445-.528044v-5.7265818c0-.2923024.2357424-.5280446.5280447-.5280446z" stroke-width=".892172"/><path d="m6.6038924 5.1865516c-.3996068-.0074001-.8510144.1924033-1.1544195.6142104-.0444008.059201-.0814014.118402-.1258022.2146036.5106087.088802.9250157.5476093.9250157 1.0508178 0 .1406024-.029601.2738046-.081401.3922066.3108048-.0444007.5032081-.118402.6808111-.2146036.3922066-.2220037.6956117-.5846099.6956117-1.1100188 0-.5994101-.4218071-.9398158-.9398158-.947216zm.088801 1.0138172c-.044401.037001-.118402.037001-.1628028-.0148-.037001-.051801-.029601-.118402.0148-.1628027l.3478066-.2886052c.044401-.037001.118402-.0296.1554027.0148.044401.044401.037001.118402-.0074.1554027zm-.4292068 3.1598534h.1850031c.1406024 0 .2368041-.074001.2368041-.2220038v-1.5540262c-.1998034.0740012-.4218072.118402-.6660113.1332022v1.420824c0 .1406024.096202.2220038.2442041.2220038zm2.545643-4.1736706c-.5180087.0074-.9398159.3478059-.9398159.947216 0 .5180088.3034052.8806149.6956118 1.1100188.177603.0962016.3700063.1702029.6808115.2146036-.0518009-.118402-.0814014-.2516042-.0814014-.3922066 0-.5032085.414407-.9546161.9250154-1.0508178-.037-.0962016-.081401-.1554026-.1258019-.2146036-.3034051-.414407-.7474126-.6142104-1.1544195-.6142104zm-.0888015 1.0138172-.3478058-.2886049c-.051801-.037001-.051801-.1110019-.0148-.1554026.037001-.051801.1110019-.059201.1554026-.0148l.3478059.2886049c.051801.037001.051801.1110019.0148.1628027-.037001.044401-.1110019.044401-.1554027.0074zm.4292073 3.1598534c.1480025 0 .2442041-.074001.2442041-.2220038v-1.420824c-.2442041-.0148002-.4662079-.059201-.6660112-.1332022v1.5540262c0 .1480025.096202.2220038.236804.2220038z" stroke-width=".074001"/><path d="m5.3310709 7.7469949c.3626061 0 .6882116-.2294039.6882116-.6808115 0-.4070069-.3848065-.8362141-.8806149-.8362141-.4218071 0-.6660112.3330056-.6660112.6734113 0 .5106087.4366073.8436143.8584145.8436143zm-.118402-.355206c-.066601.059201-.177603 0-.3182054-.1702029-.1332022-.1702028-.1702029-.2812047-.1036017-.3404057.0666011-.059201.1776029-.0074002.3182053.1628027.1332023.177603.1702029.2886049.1036018.3478059zm4.8692821.355206c.421807 0 .858415-.3330056.858415-.8436143 0-.3404057-.244204-.6734113-.666012-.6734113-.495808 0-.8806145.4292072-.8806145.8362141 0 .4588078.3256055.6808115.6882115.6808115zm.118402-.355206c-.0666-.059201-.0296-.1702029.103602-.3404057.140602-.1702029.251604-.2294039.318205-.1628028.0666.059201.0296.1702029-.103601.3404057-.140603.1628028-.251605.2220038-.318206.1628028z" stroke-width=".074001"/><circle cx="6.148371" cy="10.688929" r=".452277"/><circle cx="7.706511" cy="10.688929" r=".452277"/><circle cx="9.26465" cy="10.688929" r=".452277"/></g></svg>