<svg height="16" viewBox="0 0 16 16" width="16" xmlns="http://www.w3.org/2000/svg"><g fill="#2e3436"><circle cx="7.851777" cy="14.705316" r="1.294684"/><g transform="matrix(.15403705 0 0 .15403705 -1.858371 -4.097385)"><path d="m30.6 69.9h3.1v-6.9h-3.1zm16.4 32.5c4.3 0 6.3-4 4-8.2l-13-22.8c-1.1-1.9-2.8-2.8-4.8-2.8-3.2 0-5 2.4-4.7 5.6.7 4.1 3.5 10.7 6.8 16.1 5.2 9 8.3 12.1 11.7 12.1zm50.4-32.5v-6.9h-3.1v6.9zm-16.4 32.5c3.4 0 6.4-3.1 11.7-12.1 3.3-5.4 6.1-12 6.8-16.1.3-3.2-1.5-5.6-4.7-5.6-2.1 0-3.7.9-4.8 2.8l-13 22.9c-2.3 4.2-.3 8.1 4 8.1zm-51.5-40c0 1.6 1 2.6 2.7 2.6 1.6 0 2.6-1 2.6-2.6.1-18.7 11.2-30.5 29.2-30.5s29.1 11.8 29.3 30.4c0 1.6 1 2.6 2.6 2.6s2.6-1 2.6-2.6c0-21.2-13-35.7-34.5-35.7s-34.5 14.6-34.5 35.8z"/><path d="m57.3 95.6c2.2-1.3 2.8-4.1 1.4-6.6l-11.7-20.6c-1.4-2.5-4.2-3.4-6.4-2.1-1.3.7-1.7 2-1 3.2l14.4 25.2c.8 1.3 2 1.6 3.3.9zm13.4 0c1.3.7 2.6.4 3.2-.9l14.3-25.2c.7-1.2.4-2.5-.9-3.2-2.2-1.3-4.9-.4-6.4 2.1l-11.6 20.6c-1.4 2.5-.8 5.3 1.4 6.6zm-26.9-51.7c5.7-3.1 12.3-4.6 20.2-4.6s14.6 1.5 20.2 4.6c-4.5-5.8-11-8.7-20.2-8.7s-15.6 2.9-20.2 8.7z"/></g></g></svg>