<svg height="16" viewBox="0 0 16 16" width="16" xmlns="http://www.w3.org/2000/svg"><path d="m3.5365857 6.7073173c1.8780483.0243857 3.5121937-1.4634152 3.4878041-3.2682931-.0243856-1.7804859-1.5853648-3.24390318-3.4878041-3.24390318-1.7317072 0-2.80487803 1.07317188-3.29268456 1.82926618-.17072964.2682936-.24390114.5365873-.24390114.8536612v1.1951226c0 .3170737.07317817.5853655.24390114.8536574.48780653.7073179 1.56097736 1.7560985 3.29268456 1.7804889zm-2.0731744-2.0000005c-.2195098 0-.3902402-.17073-.3902402-.3902436v-1.7804872c0-.2195135.1707304-.3902432.3902402-.3902432.2195156 0 .3902483.1707297.3902483.3902432v1.7804872c0 .2195136-.1707327.3902436-.3902483.3902436zm2.4878072 8.4878012h2.2682941v-6.6097525c-.634147.4878047-1.4146361.8048784-2.2682941.8780491zm.7804888 2.65854h.6829267c.4878036 0 .8048786-.243901.8048786-.707315v-1.146342h-2.2682941v1.146342c0 .463414.3170747.707315.7804888.707315zm7.7317067-9.1463407c1.731708-.024386 2.829271-1.073171 3.292684-1.829268.17073-.2682939.243902-.5365865.243902-.8536573v-1.1951226c0-.3170729-.073178-.5853646-.243902-.8536612-.487807-.7560953-1.560976-1.8292662-3.292684-1.8292662-1.87805 0-3.4634128 1.4634113-3.4878066 3.2439014-.024402 1.8536587 1.6097566 3.3170739 3.4878066 3.3170739zm2.073172-2.0000005c-.219514 0-.390243-.17073-.390243-.3902436v-1.7804872c0-.2195135.170729-.3902432.390243-.3902432.219513 0 .390243.1707297.390243.3902432v1.7804872c0 .2195136-.17073.3902436-.390243.3902436zm-2.487805 8.4878012v-5.7317034c-.853658-.0731662-1.634147-.3902444-2.2682921-.8780491v6.6097525zm-.780488 2.65854c.463417 0 .780488-.243901.780488-.707315v-1.146342h-2.2682921v1.146342c0 .463414.3170711.707315.8048751.707315z" fill="#2e3436" stroke-width=".243902"/></svg>