<svg height="16" viewBox="0 0 16 16" width="16" xmlns="http://www.w3.org/2000/svg"><path class="warning" d="m9.5 8c-.832031 0-1.5.667969-1.5 1.5v5c0 .832031.667969 1.5 1.5 1.5h5c.832031 0 1.5-.667969 1.5-1.5v-5c0-.832031-.667969-1.5-1.5-1.5zm1.5 1h2v2.5s0 .5-.5.5h-1c-.5 0-.5-.5-.5-.5zm.5 4h1c.277344 0 .5.222656.5.5v1c0 .277344-.222656.5-.5.5h-1c-.277344 0-.5-.222656-.5-.5v-1c0-.277344.222656-.5.5-.5zm0 0" fill="#ff7800"/><path d="m46.095025 35.399263c-10.09999-.1-22.095969 10.00426-22.095969 19.704251 0 8.099991 8.102655 14.394196 14.602648 14.394196 9.099991 0 21.602266-10.598325 21.602266-19.298317 0-8.499991-6.608953-14.70013-14.108945-14.80013zm35.809951 0c-7.599992.1-14.108945 6.300139-14.108945 14.80013 0 8.799992 12.502274 19.298317 21.602265 19.298317 6.499994 0 14.602644-6.294205 14.602644-14.394196 0-9.699991-11.995974-19.804251-22.095964-19.704251zm-30.159791 6.615625c1.015624-.024414 2.030028.444871 2.655027 1.38237 1.099999 1.399999.797843 3.299447-.702156 4.399446l-4.596927 3.203586c-1.499998 1.199999-3.498187.796583-4.498186-.603415-.999999-1.499999-.699102-3.398188.800897-4.498187l4.596927-3.302327c.524999-.374999 1.135044-.566824 1.744418-.581473zm24.50963.098741c.609374.014649 1.219419.206473 1.744419.581473l4.596927 3.302327c1.499998.899999 1.800895 2.899447.800896 4.399446-.999999 1.399998-2.998188 1.802154-4.498186.702156l-4.596927-3.203587c-1.499999-1.099999-1.802155-2.999447-.702156-4.399445.624999-.937499 1.639403-1.406784 2.655027-1.38237zm-46.956676 12.583951c1.799998 0 4.707174 2.300345 6.407172 5.200342 1.599999 2.799997 1.591546 5.101601-.208452 5.101601s-4.696203-2.301604-6.396202-5.101601c-1.699998-2.899997-1.702517-5.200342.197482-5.200342zm69.502464 0c1.799997 0 1.897477 2.300345.197481 5.200342-1.799998 2.799997-4.594944 5.101601-6.494942 5.101601-1.799998 0-1.898739-2.301604-.098741-5.101601 1.699998-2.899997 4.596203-5.200342 6.396202-5.200342zm-43.599494 10.598165c-3.199997 2.899998-6.995651 5.207174-10.795647 6.407173v18.102457c-.1 1.999998 1.191358 2.995134 3.291356 2.995134h4.103223c1.999998 0 3.401068-.995136 3.401068-2.995134zm17.696523 0v11.0041h10.806618v-4.596927c-3.799996-1.199999-7.606621-3.507175-10.806618-6.407173z" fill="#2e3436" transform="matrix(.17802314 0 0 .17802314 -3.393481 -6.301888)"/></svg>
