<svg height="16" viewBox="0 0 16 16" width="16" xmlns="http://www.w3.org/2000/svg"><path class="warning" d="m9.5 8c-.832031 0-1.5.667969-1.5 1.5v5c0 .832031.667969 1.5 1.5 1.5h5c.832031 0 1.5-.667969 1.5-1.5v-5c0-.832031-.667969-1.5-1.5-1.5zm1.5 1h2v2.5s0 .5-.5.5h-1c-.5 0-.5-.5-.5-.5zm.5 4h1c.277344 0 .5.222656.5.5v1c0 .277344-.222656.5-.5.5h-1c-.277344 0-.5-.222656-.5-.5v-1c0-.277344.222656-.5.5-.5zm0 0" fill="#ff7800"/><g fill="#2e3436" transform="matrix(.1500407 0 0 .1500407 -1.602605 -3.991083)"><path d="m64 26.6c-21.399979 0-35.003523 15.602941-35.003523 35.302921 0 6.099994 1.499851 12.402332 4.399848 18.302326-.899999.999999-1.195259 2.994507-.19526 4.894505l6.89917 13.902478c.599999 1.2 1.997517 1.90053 3.397515 1.90053 1.499999 0 2.898118-.80347 3.098118-2.603465l-7.693225-15.698865c-2.399998-4.899995-4.503986-12.906396-4.503986-20.606388 0-17.499982 12.005499-29.393066 29.705481-29.393066 17.699983 0 29.692465 11.793084 29.692465 29.393066 0 4.76978-.807874 9.658566-1.991647 13.850409h4.751315c1.581337-4.618867 2.447252-9.335466 2.447252-13.94153 0-19.69998-13.603544-35.302921-35.003523-35.302921z"/><path d="m43.042145 71.978312c-.498437.015625-.994921.125433-1.444921.325433-2.099997.799999-3.491645 3.291498-1.991647 6.391495l8.994956 18.211204c1.399998 2.799997 3.796237 3.790446 6.196235 2.590443 2.099998-.999999 2.805265-3.292701 1.705266-5.792699l-9.398491-19.00526c-.974999-1.949998-2.566087-2.767491-4.061398-2.720616zm41.57726 0c-1.41367.091846-2.829199.933118-3.722948 2.720616l-.559744 1.145523h8.773661c-.11064-1.740942-1.204732-3.002898-2.616477-3.540706-.59375-.25-1.231914-.367181-1.874492-.325433z"/></g></svg>
