<?xml version="1.0" encoding="UTF-8" standalone="no"?>
<svg
   height="16"
   viewBox="0 0 16 16"
   width="16"
   version="1.1"
   id="svg11"
   sodipodi:docname="abm-about-logo.svg"
   inkscape:version="1.3.2 (091e20ef0f, 2023-11-25)"
   xmlns:inkscape="http://www.inkscape.org/namespaces/inkscape"
   xmlns:sodipodi="http://sodipodi.sourceforge.net/DTD/sodipodi-0.dtd"
   xmlns="http://www.w3.org/2000/svg"
   xmlns:svg="http://www.w3.org/2000/svg">
  <defs
     id="defs11" />
  <sodipodi:namedview
     id="namedview11"
     pagecolor="#ffffff"
     bordercolor="#000000"
     borderopacity="0.25"
     inkscape:showpageshadow="2"
     inkscape:pageopacity="0.0"
     inkscape:pagecheckerboard="0"
     inkscape:deskcolor="#d1d1d1"
     inkscape:zoom="72.8125"
     inkscape:cx="7.993133"
     inkscape:cy="8"
     inkscape:window-width="2560"
     inkscape:window-height="1371"
     inkscape:window-x="0"
     inkscape:window-y="32"
     inkscape:window-maximized="1"
     inkscape:current-layer="svg11" />
  <filter
     id="a"
     color-interpolation-filters="sRGB"
     height="1.2951545"
     width="1.1804254"
     x="-0.09021271"
     y="-0.14757723">
    <feGaussianBlur
       stdDeviation=".089445245"
       id="feGaussianBlur1" />
  </filter>
  <filter
     id="b"
     color-interpolation-filters="sRGB"
     height="1.1401443"
     width="1.0856686"
     x="-0.042834307"
     y="-0.070072146">
    <feGaussianBlur
       stdDeviation=".04135944"
       id="feGaussianBlur2" />
  </filter>
  <filter
     id="c"
     color-interpolation-filters="sRGB"
     height="1.0446095"
     width="1.0272694"
     x="-0.01363471"
     y="-0.022304761">
    <feGaussianBlur
       stdDeviation=".0091592"
       id="feGaussianBlur3" />
  </filter>
  <g
     transform="matrix(3.7795276 0 0 3.7795276 -9.422642 -32.454292)"
     id="g6">
    <g
       stroke-linecap="round"
       stroke-linejoin="round"
       id="g5">
      <path
         d="m3.1584361 9.6176525c-.1800893 0-.325072.144983-.325072.325072v1.5216145c0 .180089.1449827.325072.325072.325072h2.7020165c.1800892 0 .325072-.144983.325072-.325072v-.189049h.1323343c.00236 0 .00462-.000231.00692-.000472.00229-.000232.0047-.000473.00692-.000921.0022-.000449.00433-.0012.00645-.0018.00212-.000661.00442-.0014.00645-.0023.00208-.000874.00403-.0017.00599-.0028.00194-.001.00372-.002.00553-.0032.00182-.0012.00339-.0028.00507-.0042s.00353-.0026.00507-.0041c.00153-.0015.00276-.0034.00415-.0051s.00293-.0033.00415-.0051c.0012-.0018.0022-.0036.00323-.0055.00104-.0019.00191-.0039.00277-.006.0008735-.0021.00163-.0043.00231-.0064.000661-.0021.00139-.0042.00184-.0065.0004485-.0022.0006846-.0046.0009207-.0069.0002318-.0023.0004722-.0046.0004722-.0069v-.04611-.921268-.04611c.0000002-.0024-.0002312-.0046-.0004722-.0069-.0002316-.0023-.0004722-.0047-.0009207-.0069-.0004486-.0022-.0012-.0043-.00184-.0065-.0006611-.0021-.00144-.0044-.00231-.0065-.0008735-.0021-.0017-.004-.00277-.006-.00104-.0019-.00201-.0037-.00323-.0055-.00123-.0018-.00276-.0034-.00415-.0051s-.00261-.0035-.00415-.0051c-.00153-.0015-.00339-.0028-.00507-.0041-.00168-.0014-.00326-.0029-.00507-.0041-.00179-.0012-.00363-.0022-.00553-.0032-.00194-.0011-.00395-.0019-.00599-.0028-.00205-.000869-.00429-.0016-.00645-.0023-.00212-.000661-.00424-.0014-.00645-.0018-.00224-.000453-.0046-.000692-.00692-.000923-.00229-.000232-.00456-.000461-.00692-.000461h-.1323343v-.1825825c0-.180089-.1449828-.325072-.325072-.325072zm.015216.188588h2.6715843c.077339 0 .1397119.06237.1397119.139712v.2476085.04611c0 .03774.030504.06824.068242.06824h.1323343v.784784h-.1323343c-.037737 0-.068242.0305-.068242.06824v.04611.254063c0 .07734-.062373.139712-.1397119.139712h-2.6715842c-.077338 0-.1397117-.06237-.1397117-.139712v-1.5151575c0-.07734.062374-.139712.1397116-.139712z"
         fill="#ff5300"
         filter="url(#a)"
         stroke="#ff5300"
         stroke-width=".211667"
         id="path3" />
      <path
         d="m3.1584429 9.6176564c-.18009 0-.32508.14498-.32508.32507v.00009 1.5215196.00018c.0001.18001.14504.32489.32508.32489h.00016 2.70185.00018c.18001-.00009.32489-.14504.32489-.32507v-.00018-.18887h.00013.13221.00029c.00226-.00002.00442-.00024.00663-.00047l.00029-.00003c.0022-.00022.0045-.00046.00663-.00089l.00027-.00006c.00211-.00045.00415-.0012.00618-.0017l.00027-.00008c.00204-.00064.00423-.0014.00618-.0022l.00026-.00011c.00198-.00083.00385-.0016.00573-.0027l.00024-.00013c.00185-.00095.00355-.0019.00529-.0031l.00022-.00016c.00173-.0012.00324-.0027.00485-.004l.00021-.00017c.00162-.0013.00338-.0025.00486-.0039l.00018-.00019c.00145-.0015.00264-.0033.00397-.0049l.00017-.00021c.00134-.0016.00281-.0032.00398-.0049l.00014-.00023c.00114-.0017.0021-.0035.00309-.0053l.00013-.00024c.00098-.0018.00181-.0038.00264-.0058l.00011-.00026c.00082-.002.00155-.0041.0022-.0061l.00008-.00026c.00064-.002.00133-.004.00176-.0062l.00005-.00028c.00042-.0021.00064-.0044.00087-.0066l.00003-.00029c.00022-.0022.00044-.0044.00044-.0066v-.00017-.04594-.00022-.92105-.00017-.04594c0-.0001 0-.0002 0-.0003-.00002-.0023-.00024-.0044-.00047-.0066l-.00003-.00029c-.00022-.0022-.00046-.0045-.00089-.0066l-.00006-.00027c-.00045-.0021-.00117-.0041-.00178-.0062l-.00009-.00026c-.00064-.002-.00139-.0042-.00222-.0062l-.00011-.00026c-.00084-.002-.00164-.0038-.00266-.0057l-.00013-.00023c-.00099-.0018-.00193-.0035-.0031-.0053l-.00016-.00022c-.0012-.0017-.00266-.0032-.00399-.0049l-.00017-.00021c-.00133-.0016-.00251-.0034-.00398-.0049l-.0002-.00018c-.00149-.0014-.00326-.0027-.00487-.0039l-.00021-.00017c-.00161-.0013-.00313-.0028-.00486-.0039l-.00023-.00014c-.00172-.0011-.00348-.0021-.0053-.0031l-.00025-.00013c-.00186-.001-.00379-.0018-.00574-.0027l-.00026-.0001c-.00198-.00083-.00412-.0015-.00619-.0022l-.00027-.00008c-.00203-.00064-.00406-.0013-.00618-.0017l-.00028-.00005c-.00216-.00042-.00442-.00065-.00664-.00087l-.00029-.00003c-.00219-.00022-.00437-.00043-.00663-.00043h-.00013-.13221v-.00018-.1823996-.00018c-.00009-.18001-.14504-.3249-.32507-.3249h-.00016zm.01521.18858h1.78122.89037c.05166 0 .09334.04158.09344.09315.02564.00016.04627.02089.04627.04657v.1652996.0823.03092.01519c0 .02526.02033.04569.04549.04579.00016.01245.01027.02245.02275.02245h.08835.04398v.52338.26141h-.08835-.04398c-.02526 0-.04569.02033-.04579.04549-.01244.00016-.02245.01027-.02245.02275v.03091.0152.16962.08444c0 .05166-.04159.09334-.09315.09344-.00016.02564-.02089.04627-.04656.04627h-1.78122-.89037c-.05166 0-.09334-.04158-.09344-.09314-.02564-.00016-.04627-.02089-.04627-.04657v-1.0102-.5049596c0-.05166.04158-.09334.09314-.09344.00016-.02564.02089-.04627.04657-.04627z"
         fill="#ff8c55"
         filter="url(#b)"
         stroke="#ff8c55"
         stroke-width=".105833"
         id="path4" />
      <path
         d="m3.158443 9.6176514c-.18009 0-.32508.14498-.32508.32507v.00018 1.5214296.00036c.00019.17992.1451.32472.32508.32472h.00032 2.70169.00035c.17993-.00019.32472-.1451.32472-.32508v-.00036-.18868h.00026.13208l.00058-.00001c.00215-.00003.00423-.00025.00634-.00047l.00057-.00006c.00212-.00021.00431-.00045.00635-.00086l.00055-.00012c.002-.00045.00395-.0011.0059-.0017l.00053-.00017c.00197-.00061.00406-.0013.00592-.0021l.00051-.00022c.00189-.00079.00368-.0016.00548-.0026l.00048-.00025c.00175-.00092.00339-.0018.00505-.0029l.00045-.00031c.00163-.0012.00308-.0026.00462-.0039l.00042-.00034c.00156-.0013.00324-.0024.00465-.0038l.00037-.00038c.00136-.0014.0025-.0032.00378-.0047l.00035-.00042c.00129-.0015.00268-.003.0038-.0047l.00029-.00045c.00107-.0016.00199-.0033.00294-.0051l.00025-.00048c.00093-.0017.00173-.0036.00252-.0055l.00021-.00053c.00079-.0019.00147-.0039.0021-.0059l.00016-.00052c.00062-.0019.00127-.0039.00168-.006l.0001-.00055c.00039-.0021.0006-.0042.00082-.0064l.00006-.00057c.00021-.0021.00041-.0042.00041-.0063v-.00034-.04577-.00044-.92083-.00034-.04577c0-.0002 0-.00039-.00001-.00059-.00003-.0022-.00024-.0042-.00046-.0063l-.00006-.00057c-.00022-.0021-.00045-.0043-.00086-.0063l-.00012-.00054c-.00045-.002-.00114-.0039-.00172-.006l-.00017-.00053c-.00062-.002-.00134-.004-.00214-.006l-.00022-.00052c-.0008-.0019-.00157-.0036-.00255-.0055l-.00026-.00047c-.00095-.0017-.00185-.0034-.00297-.005l-.00032-.00044c-.00117-.0016-.00256-.0031-.00383-.0047l-.00035-.00042c-.00125-.0016-.00239-.0032-.0038-.0047l-.00039-.00036c-.00145-.0013-.00314-.0025-.00468-.0037l-.00042-.00035c-.00153-.0013-.00299-.0026-.00465-.0038l-.00045-.00029c-.00165-.0011-.00334-.002-.00508-.0029l-.00049-.00026c-.00179-.00097-.00363-.0017-.0055-.0025l-.00052-.00021c-.0019-.00078-.00395-.0014-.00593-.0021l-.00053-.00016c-.00195-.00062-.0039-.0013-.00592-.0016l-.00057-.0001c-.00207-.00039-.00423-.00061-.00635-.00082l-.00057-.00006c-.0021-.00021-.00419-.0004-.00635-.0004h-.00026-.13208v-.00035-.1822296-.00035c-.00019-.17993-.1451-.32472-.32507-.32472h-.00033zm.01521.18859h.89085 1.78074c.02598 0 .04697.02079.04717.04657.05128.00032.09254.04178.09254.09314v.08301.1646.01571.0304c0 .01277.01017.02314.02275.02333.00031.02489.02053.04491.04549.04491h.04436.08797v.26197.52281h-.04436-.08797c-.01278 0-.02314.01017-.02334.02275-.02488.00031-.0449.02053-.0449.04549v.01572.03039.08517.16889c0 .02598-.02079.04698-.04658.04718-.00032.05128-.04178.09254-.09313.09254h-.89086-1.78073c-.02598 0-.04697-.0208-.04717-.04658-.05128-.00032-.09254-.04178-.09254-.09314v-.50523-1.0099168c0-.02599.02079-.04698.04657-.04718.00032-.05128.04178-.09254.09314-.09254z"
         fill="#ffc5aa"
         filter="url(#c)"
         stroke="#ffc5aa"
         stroke-width=".052917"
         id="path5" />
    </g>
    <path
       d="m3.158436 9.6176525c-.1800893 0-.325072.144983-.325072.325072v1.5216135c0 .180089.1449827.325072.325072.325072h2.7020165c.1800892 0 .325072-.144983.325072-.325072v-.189049h.1323343c.00236 0 .00462-.000231.00692-.000472.00229-.000232.0047-.000473.00692-.000921.0022-.000449.00433-.0012.00645-.0018.00212-.000661.00442-.0014.00645-.0023.00208-.000874.00403-.0017.00599-.0028.00194-.001.00372-.002.00553-.0032.00182-.0012.00339-.0028.00507-.0042s.00353-.0026.00507-.0041c.00153-.0015.00276-.0034.00415-.0051s.00293-.0033.00415-.0051c.0012-.0018.0022-.0036.00323-.0055.00104-.0019.00191-.0039.00277-.006.0008735-.0021.00163-.0043.00231-.0064.000661-.0021.00139-.0042.00184-.0065.0004485-.0022.0006846-.0046.0009207-.0069.0002318-.0023.0004722-.0046.0004722-.0069v-.04611-.921268-.04611c.0000002-.0024-.0002312-.0046-.0004722-.0069-.0002316-.0023-.0004722-.0047-.0009207-.0069-.0004486-.0022-.0012-.0043-.00184-.0065-.0006611-.0021-.00144-.0044-.00231-.0065-.0008735-.0021-.0017-.004-.00277-.006-.00104-.0019-.00201-.0037-.00323-.0055-.00123-.0018-.00276-.0034-.00415-.0051s-.00261-.0035-.00415-.0051c-.00153-.0015-.00339-.0028-.00507-.0041-.00168-.0014-.00326-.0029-.00507-.0041-.00179-.0012-.00363-.0022-.00553-.0032-.00194-.0011-.00395-.0019-.00599-.0028-.00205-.000869-.00429-.0016-.00645-.0023-.00212-.000661-.00424-.0014-.00645-.0018-.00224-.000453-.0046-.000692-.00692-.000923-.00229-.000232-.00456-.000461-.00692-.000461h-.1323343v-.1825815c0-.180089-.1449828-.325072-.325072-.325072zm.015216.188588h2.6715843c.077339 0 .1397119.06237.1397119.139712v.2476075.04611c0 .03774.030504.06824.068242.06824h.1323343v.784784h-.1323343c-.037737 0-.068242.0305-.068242.06824v.04611.254063c0 .07734-.062373.139712-.1397119.139712h-2.6715842c-.077338 0-.1397117-.06237-.1397117-.139712v-1.5151565c0-.07734.062374-.139712.1397116-.139712z"
       fill="#fff"
       stroke-width=".236054"
       id="path6" />
  </g>
  <g
     transform="matrix(.89227326 0 0 .89227326 .960247 .849615)"
     id="g8">
    <path
       d="m1.7421875 3.4140625c-.76282938 0-1.37695313.6141239-1.37695312 1.3769531v6.4453124c0 .762829.61412374 1.376953 1.37695312 1.376953h11.4453125c.762829 0 1.376953-.614124 1.376953-1.376953v-.800781h.560547c.01 0 .01957-.000979.0293-.002.0097-.000982.01989-.002.0293-.0039.0093-.0019.01836-.0051.02734-.0078.009-.0028.01871-.0061.02734-.0098.0088-.0037.01708-.0072.02539-.01172.0082-.0044.01577-.0085.02344-.01367.0077-.0052.01436-.0117.02149-.01758.0071-.0059.01497-.01106.02148-.01758.0065-.0065.0117-.01436.01758-.02148.0059-.0071.0124-.01381.01758-.02148.0051-.0076.0093-.01537.01367-.02344.0044-.0082.0081-.01675.01172-.02539.0037-.0087.0069-.01817.0098-.02734.0028-.009.0059-.01793.0078-.02734.0019-.0095.0029-.0195.0039-.0293.000982-.0097.002-.01931.002-.0293v-.1952551-3.9023438-.1953125c.000001-.010003-.000979-.019566-.002-.029297-.000981-.00972-.002-.019888-.0039-.029297-.0019-.00934-.0051-.018362-.0078-.027344-.0028-.00905-.0061-.018708-.0098-.027344-.0037-.00879-.0072-.01708-.01172-.025391-.0044-.00818-.0085-.015765-.01367-.023438-.0052-.00768-.0117-.014356-.01758-.021484-.0059-.00712-.01106-.014965-.01758-.021484-.0065-.00652-.01436-.011705-.02148-.017578-.0071-.00587-.01381-.012403-.02149-.017578-.0076-.0051-.01537-.0093-.02344-.013672-.0082-.00443-.01675-.00808-.02539-.011719-.0087-.00368-.01817-.00695-.02734-.00977-.009-.0028-.01794-.0059-.02734-.00781-.0095-.00192-.0195-.00293-.0293-.00391-.0097-.0009814-.01931-.00195-.0293-.00195h-.560547v-.773434c0-.7628292-.614124-1.3769531-1.376953-1.3769531zm.064453.7988281h11.3164065c.327594 0 .591797.264204.591797.5917969v1.0488281.1953125c0 .1598498.129212.2890625.289062.2890625h.560547v3.3242188h-.560547c-.15985 0-.289062.1292126-.289062.2890625v.1953121 1.076172c0 .327594-.264203.591797-.591797.591797h-11.3164064c-.3275926 0-.5917968-.264203-.5917968-.591797v-6.4179685c0-.3275929.2642042-.5917969.5917967-.5917969z"
       stroke-width=".999887"
       id="path7" />
    <path
       d="m1.8066412 4.2128906c-.327592 0-.591797.2642043-.591797.5917969v6.4179685c0 .327594.264205.591797.591797.591797h11.3164058c.327594 0 .591797-.264203.591797-.591797v-1.076173-.1953114c0-.1598495.129212-.2890622.289062-.2890622h.560547v-3.3242188h-.560547c-.15985 0-.289062-.1292128-.289062-.2890625v-.1953125-1.0488281c0-.3275926-.264203-.5917969-.591797-.5917969z"
       fill="#0f0"
       stroke-width=".999694"
       id="path8" />
  </g>
  <g
     fill="#2e3436"
     transform="matrix(0.07400125,0,0,0.07400125,2.970431,2.5373069)"
     id="g2"
     style="fill:#000000;fill-opacity:1">
    <path
       d="M 49.1,35.8 C 43.7,35.7 37.6,38.4 33.5,44.1 32.9,44.9 32.4,45.7 31.8,47 38.7,48.2 44.3,54.4 44.3,61.2 44.3,63.1 43.9,64.9 43.2,66.5 47.4,65.9 50,64.9 52.4,63.6 57.7,60.6 61.8,55.7 61.8,48.6 61.8,40.5 56.1,35.9 49.1,35.8 Z M 50.3,49.5 C 49.7,50 48.7,50 48.1,49.3 47.6,48.6 47.7,47.7 48.3,47.1 L 53,43.2 C 53.6,42.7 54.6,42.8 55.1,43.4 55.7,44 55.6,45 55,45.5 Z M 44.5,92.2 H 47 C 48.9,92.2 50.2,91.2 50.2,89.2 V 68.2 C 47.5,69.2 44.5,69.8 41.2,70 V 89.2 C 41.2,91.1 42.5,92.2 44.5,92.2 Z M 78.9,35.8 C 71.9,35.9 66.2,40.5 66.2,48.6 66.2,55.6 70.3,60.5 75.6,63.6 78,64.9 80.6,65.9 84.8,66.5 84.1,64.9 83.7,63.1 83.7,61.2 83.7,54.4 89.3,48.3 96.2,47 95.7,45.7 95.1,44.9 94.5,44.1 90.4,38.5 84.4,35.8 78.9,35.8 Z M 77.7,49.5 73,45.6 C 72.3,45.1 72.3,44.1 72.8,43.5 73.3,42.8 74.3,42.7 74.9,43.3 L 79.6,47.2 C 80.3,47.7 80.3,48.7 79.8,49.4 79.3,50 78.3,50 77.7,49.5 Z M 83.5,92.2 C 85.5,92.2 86.8,91.2 86.8,89.2 V 70 C 83.5,69.8 80.5,69.2 77.8,68.2 V 89.2 C 77.8,91.2 79.1,92.2 81,92.2 Z"
       id="path1"
       style="fill:#000000;fill-opacity:1" />
    <path
       d="M 31.9,70.4 C 36.8,70.4 41.2,67.3 41.2,61.2 41.2,55.7 36,49.9 29.3,49.9 23.6,49.9 20.3,54.4 20.3,59 20.3,65.9 26.2,70.4 31.9,70.4 Z M 30.3,65.6 C 29.4,66.4 27.9,65.6 26,63.3 24.2,61 23.7,59.5 24.6,58.7 25.5,57.9 27,58.6 28.9,60.9 30.7,63.3 31.2,64.8 30.3,65.6 Z M 96.1,70.4 C 101.8,70.4 107.7,65.9 107.7,59 107.7,54.4 104.4,49.9 98.7,49.9 92,49.9 86.8,55.7 86.8,61.2 86.8,67.4 91.2,70.4 96.1,70.4 Z M 97.7,65.6 C 96.8,64.8 97.3,63.3 99.1,61 101,58.7 102.5,57.9 103.4,58.8 104.3,59.6 103.8,61.1 102,63.4 100.1,65.6 98.6,66.4 97.7,65.6 Z"
       id="path2"
       style="fill:#000000;fill-opacity:1" />
  </g>
  <circle
     cx="6.148371"
     cy="10.688929"
     r=".452277"
     id="circle9" />
  <circle
     cx="7.706511"
     cy="10.688929"
     fill="#ff7800"
     r=".452277"
     id="circle10" />
  <circle
     cx="9.26465"
     cy="10.688929"
     r=".452277"
     id="circle11" />
</svg>
