<svg height="16" viewBox="0 0 16 16" width="16" xmlns="http://www.w3.org/2000/svg"><g fill="#2e3436"><g><circle cx="10.081377" cy="14.705316" r="1.294684"/><circle cx="1.851777" cy="14.705316" r="1.294684"/><circle cx="5.966577" cy="14.705316" r="1.294684"/><circle cx="14.196177" cy="14.705316" r="1.294684"/></g><path d="m48.5 31.5c-13.8 0-25.2 15.9-25.2 35.4 0 9.2 2.4 19.3 5.4 19.3 2.3 0 4.2-3.1 4.4-6.2-4.6-1.3-7.9-5.6-7.9-10.5 0-3 1.2-5.7 3.2-7.8 1-13.4 9.8-25.3 19.8-25.3 6 0 8.8 4.5 8.8 12.8l-23.9 12.6c-3.5 1.8-5.1 4.7-5.1 7.7 0 4.5 3.7 8.2 8.2 8.2 2.2 0 3.7-.6 6.8-2.2l12-6.6c5.2-2.9 7.1-6.4 7.1-13.8v-6.6c0-10.5-4.6-17-13.6-17zm-12.5 43.2c-2.9 0-5.2-2.3-5.2-5.2 0-2.8 2.3-5.2 5.2-5.2 2.8 0 5.1 2.3 5.1 5.2s-2.3 5.2-5.1 5.2zm0-2c1.7 0 3.1-1.4 3.1-3.2 0-1.7-1.4-3.2-3.1-3.2-1.8 0-3.2 1.4-3.2 3.2s1.4 3.2 3.2 3.2zm-8.5 23.8h2.9v-11.5h-2.9zm52-65c-9 0-13.6 6.6-13.6 17v6.5c0 7.4 1.9 10.9 7.1 13.8l12.1 6.6c3.1 1.7 4.6 2.2 6.8 2.2 4.5 0 8.2-3.7 8.2-8.2 0-3.1-1.6-5.9-5.1-7.7l-24-12.4c0-8.3 2.8-12.8 8.8-12.8 10 0 18.8 11.8 19.8 25.3 2.1 2.1 3.2 4.8 3.2 7.8 0 4.9-3.4 9.2-7.9 10.5.2 3.1 2.1 6.2 4.4 6.2 3 0 5.4-10.2 5.4-19.3 0-19.6-11.4-35.5-25.2-35.5zm12.5 43.2c-2.8 0-5.2-2.3-5.2-5.2 0-2.8 2.3-5.2 5.2-5.2s5.2 2.3 5.2 5.2-2.3 5.2-5.2 5.2zm0-2c1.8 0 3.2-1.4 3.2-3.2 0-1.7-1.4-3.2-3.2-3.2-1.7 0-3.2 1.4-3.2 3.2.1 1.8 1.5 3.2 3.2 3.2zm8.5 23.8v-11.5h-2.9v11.5z" transform="matrix(.16373464 0 0 .16373464 -2.479017 -5.157641)"/></g></svg>